<svg width="33" height="32" viewBox="0 0 33 32" fill="none" xmlns="http://www.w3.org/2000/svg">
<g clip-path="url(#clip0_447_1874)">
<path fill-rule="evenodd" clip-rule="evenodd" d="M16.5 32C7.66347 32 0.5 24.8365 0.5 16C0.5 7.16347 7.66347 0 16.5 0C25.3365 0 32.5 7.16347 32.5 16C32.5 24.8365 25.3365 32 16.5 32ZM19.0043 8.4642L19.2075 8.16533L19.4108 7.87073L19.8637 7.20847C19.9201 7.12673 19.8969 7.01707 19.8129 6.96333C19.7301 6.90847 19.6163 6.93107 19.5621 7.0128L18.8706 8.0202L18.6629 8.3234C18.0057 8.075 17.2733 7.93633 16.5 7.93633C15.7279 7.93633 14.9943 8.075 14.3371 8.3234L14.1305 8.0202L13.9261 7.7224L13.4401 7.0128C13.3837 6.93107 13.2711 6.9096 13.1871 6.96333C13.1043 7.01707 13.0811 7.12673 13.1363 7.20847L13.5892 7.87073L13.7925 8.16533L13.9968 8.4642C12.4536 9.16413 11.4097 10.4897 11.4097 12.0068H21.5903C21.5903 10.4897 20.5464 9.16413 19.0043 8.4642ZM11.4097 12.7142H11.4881H21.5903V20.5003C21.5903 21.1185 21.0755 21.6217 20.4393 21.6217H19.6074C19.6361 21.7152 19.6527 21.8131 19.6527 21.9163V24.1579C19.6527 24.7439 19.1633 25.2191 18.5602 25.2191C17.9581 25.2191 17.4699 24.7439 17.4699 24.1579V21.9163C17.4699 21.8131 17.4853 21.7152 17.513 21.6217H15.487C15.5147 21.7152 15.5312 21.8131 15.5312 21.9163V24.1579C15.5312 24.7439 15.0419 25.2191 14.4398 25.2191C13.8377 25.2191 13.3484 24.7439 13.3484 24.1579V21.9163C13.3484 21.8131 13.3639 21.7152 13.3926 21.6217H12.5619C11.9256 21.6217 11.4097 21.1185 11.4097 20.5003V12.7142ZM9.5914 12.7142C8.98827 12.7142 8.5 13.1894 8.5 13.7753V18.3178C8.5 18.9037 8.98827 19.3789 9.5914 19.3789C10.1935 19.3789 10.6817 18.9037 10.6817 18.3178V13.7753C10.6817 13.1894 10.1935 12.7142 9.5914 12.7142ZM22.3183 13.7753C22.3183 13.1894 22.8065 12.7142 23.4097 12.7142C24.0117 12.7142 24.5 13.1894 24.5 13.7753V18.3178C24.5 18.9037 24.0117 19.3789 23.4097 19.3789C22.8065 19.3789 22.3183 18.9037 22.3183 18.3178V13.7753Z" fill="#519D9E"/>
<path d="M14.3182 10.591C14.0166 10.591 13.7725 10.3534 13.7725 10.0599C13.7725 9.76632 14.0166 9.52979 14.3182 9.52979C14.6197 9.52979 14.8639 9.76632 14.8639 10.0599C14.8639 10.3534 14.6197 10.591 14.3182 10.591Z" fill="#519D9E"/>
<path d="M18.6814 10.591C18.3799 10.591 18.1357 10.3534 18.1357 10.0599C18.1357 9.76632 18.3799 9.52979 18.6814 9.52979C18.983 9.52979 19.2271 9.76632 19.2271 10.0599C19.2271 10.3534 18.983 10.591 18.6814 10.591Z" fill="#519D9E"/>
</g>
<defs>
<clipPath id="clip0_447_1874">
<rect width="32" height="32" fill="white" transform="translate(0.5)"/>
</clipPath>
</defs>
</svg>
