<svg width="26" height="26" viewBox="0 0 26 26" fill="none" xmlns="http://www.w3.org/2000/svg">
<path d="M19.375 10.75H24.25V10H19.75V6.25C19.75 6.04262 19.5824 5.875 19.375 5.875C18.6408 5.875 17.977 6.17875 17.5 6.66663V3.625C17.5 2.59113 16.6589 1.75 15.625 1.75H5.875C4.84113 1.75 4 2.59113 4 3.625V10.2085C3.77837 10.0795 3.5245 10 3.25 10C2.42275 10 1.75 10.6727 1.75 11.5C1.75 11.9504 1.95325 12.3497 2.26825 12.625C1.95325 12.9003 1.75 13.2996 1.75 13.75C1.75 14.2004 1.95325 14.5997 2.26825 14.875C1.95325 15.1503 1.75 15.5496 1.75 16C1.75 16.4504 1.95325 16.8497 2.26825 17.125C1.95325 17.4003 1.75 17.7996 1.75 18.25C1.75 19.0772 2.42275 19.75 3.25 19.75C3.5245 19.75 3.77837 19.6705 4 19.5415V22.375C4 23.4089 4.84113 24.25 5.875 24.25H15.625C16.6589 24.25 17.5 23.4089 17.5 22.375V19.75H24.25V19H17.5V8.5C17.5 7.59438 18.1454 6.83687 19 6.66288V10.375C19 10.5824 19.1676 10.75 19.375 10.75ZM5.875 2.5H15.625C16.2452 2.5 16.75 3.00475 16.75 3.625V4H4.75V3.625C4.75 3.00475 5.25475 2.5 5.875 2.5ZM2.5 11.5C2.5 11.0864 2.83637 10.75 3.25 10.75C3.66363 10.75 4 11.0864 4 11.5C4 11.9136 3.66363 12.25 3.25 12.25C2.83637 12.25 2.5 11.9136 2.5 11.5ZM2.5 13.75C2.5 13.3364 2.83637 13 3.25 13C3.66363 13 4 13.3364 4 13.75C4 14.1636 3.66363 14.5 3.25 14.5C2.83637 14.5 2.5 14.1636 2.5 13.75ZM2.5 16C2.5 15.5864 2.83637 15.25 3.25 15.25C3.66363 15.25 4 15.5864 4 16C4 16.4136 3.66363 16.75 3.25 16.75C2.83637 16.75 2.5 16.4136 2.5 16ZM3.25 19C2.83637 19 2.5 18.6636 2.5 18.25C2.5 17.8364 2.83637 17.5 3.25 17.5C3.66363 17.5 4 17.8364 4 18.25C4 18.6636 3.66363 19 3.25 19ZM15.625 23.5H5.875C5.25475 23.5 4.75 22.9953 4.75 22.375V22H16.75V22.375C16.75 22.9953 16.2452 23.5 15.625 23.5ZM16.75 21.25H4.75V4.75H16.75V8.5V21.25Z" fill="#519D9E"/>
<path d="M5.72656 9.9375H9.55469C9.76638 9.9375 9.9375 9.76638 9.9375 9.55469V6.49219C9.9375 6.28049 9.76638 6.10938 9.55469 6.10938H5.72656C5.51487 6.10938 5.34375 6.28049 5.34375 6.49219V9.55469C5.34375 9.76638 5.51487 9.9375 5.72656 9.9375ZM6.10938 6.875H9.17188V9.17187H6.10938V6.875Z" fill="#519D9E"/>
<path d="M15.6797 11.0859H11.8516C11.6399 11.0859 11.4688 11.2571 11.4688 11.4687V14.5312C11.4688 14.7429 11.6399 14.9141 11.8516 14.9141H15.6797C15.8914 14.9141 16.0625 14.7429 16.0625 14.5312V11.4687C16.0625 11.2571 15.8914 11.0859 15.6797 11.0859ZM15.2969 14.1484H12.2344V11.8516H15.2969V14.1484Z" fill="#519D9E"/>
<path d="M16.0625 6.10938H10.7031V6.875H16.0625V6.10938Z" fill="#519D9E"/>
<path d="M16.0625 7.64062H10.7031V8.40625H16.0625V7.64062Z" fill="#519D9E"/>
<path d="M14.5312 9.17188H10.7031V9.9375H14.5312V9.17188Z" fill="#519D9E"/>
<path d="M9.55469 16.0625H5.72656C5.51487 16.0625 5.34375 16.2336 5.34375 16.4453V19.5078C5.34375 19.7195 5.51487 19.8906 5.72656 19.8906H9.55469C9.76638 19.8906 9.9375 19.7195 9.9375 19.5078V16.4453C9.9375 16.2336 9.76638 16.0625 9.55469 16.0625ZM9.17188 19.125H6.10938V16.8281H9.17188V19.125Z" fill="#519D9E"/>
<path d="M16.0625 16.0625H10.7031V16.8281H16.0625V16.0625Z" fill="#519D9E"/>
<path d="M16.0625 17.5938H10.7031V18.3594H16.0625V17.5938Z" fill="#519D9E"/>
<path d="M11.4688 19.125H10.7031V19.8906H11.4688V19.125Z" fill="#519D9E"/>
<path d="M10.7031 11.0859H5.34375V11.8516H10.7031V11.0859Z" fill="#519D9E"/>
<path d="M10.7031 12.6172H5.34375V13.3828H10.7031V12.6172Z" fill="#519D9E"/>
<path d="M10.7031 14.1484H5.34375V14.9141H10.7031V14.1484Z" fill="#519D9E"/>
<path d="M16.0625 9.17188H15.2969V9.9375H16.0625V9.17188Z" fill="#519D9E"/>
<path d="M13 19.125H12.2344V19.8906H13V19.125Z" fill="#519D9E"/>
<path d="M14.5312 19.125H13.7656V19.8906H14.5312V19.125Z" fill="#519D9E"/>
<path d="M16.0625 19.125H15.2969V19.8906H16.0625V19.125Z" fill="#519D9E"/>
</svg>
