<svg width="33" height="32" viewBox="0 0 33 32" fill="none" xmlns="http://www.w3.org/2000/svg">
<g clip-path="url(#clip0_447_1872)">
<path fill-rule="evenodd" clip-rule="evenodd" d="M0.5 16C0.5 7.16347 7.66347 0 16.5 0C25.3365 0 32.5 7.16347 32.5 16C32.5 24.8365 25.3365 32 16.5 32C7.66347 32 0.5 24.8365 0.5 16ZM19.1048 9.441C19.7157 8.6524 20.1788 7.53773 20.0113 6.4C19.0128 6.46939 17.8457 7.1082 17.1648 7.94087C16.544 8.69533 16.0338 9.81767 16.2331 10.9069C17.3246 10.9411 18.4512 10.2869 19.1048 9.441ZM23.9581 12.6846C20.8138 14.4182 21.3229 18.9351 24.5 20.1433C24.0632 21.1169 23.8529 21.552 23.2903 22.4144C22.5053 23.6183 21.3984 25.1173 20.0255 25.1283C19.4611 25.1344 19.0908 24.9635 18.6914 24.7793C18.2285 24.5658 17.7266 24.3343 16.8385 24.3397C15.9556 24.3443 15.4457 24.5731 14.9765 24.7835C14.5667 24.9673 14.1879 25.1372 13.6187 25.1316C12.2469 25.1195 11.1981 23.7669 10.4131 22.5631C8.21687 19.1994 7.98587 15.2509 9.34013 13.1505C10.3036 11.6592 11.8232 10.7869 13.2508 10.7869C14.0115 10.7869 14.6244 11.0067 15.2085 11.2161C15.7401 11.4067 16.2477 11.5887 16.821 11.5887C17.3515 11.5887 17.7877 11.4226 18.2635 11.2413C18.8344 11.0239 19.4625 10.7847 20.3791 10.7847C21.6513 10.7847 22.999 11.4819 23.9581 12.6846Z" fill="#519D9E"/>
</g>
<defs>
<clipPath id="clip0_447_1872">
<rect width="32" height="32" fill="white" transform="translate(0.5)"/>
</clipPath>
</defs>
</svg>
