<svg width="34" height="24" viewBox="0 0 34 24" fill="none" xmlns="http://www.w3.org/2000/svg">
<path d="M0.520854 7.9624C0.517555 7.96153 0.515311 7.95906 0.512016 7.95819C0.230495 7.94649 -0.00043555 7.71635 -0.000435525 7.42834C-0.000435499 7.13339 0.2299 6.89483 0.521316 6.89483C0.670059 6.84518 1.06068 6.19472 1.06068 5.02217C1.06068 3.84595 0.669796 3.19916 0.520855 3.15112C0.51815 3.15045 0.5163 3.14831 0.513599 3.14764C0.258064 3.13809 0.0397985 2.94443 0.00886131 2.67921C-0.0251734 2.38579 0.181747 2.1201 0.471382 2.08562L17.4782 0.0595382C18.1394 -0.0198479 18.8096 -0.0198478 19.4713 0.0595383L31.7295 1.55104C31.7324 1.55137 31.7346 1.55331 31.7376 1.55378C32.7298 1.62067 33.2497 3.06064 33.2497 4.48759C33.2497 5.40701 33.0336 6.33184 32.615 6.89243C33.0339 7.45301 33.2497 8.37911 33.2497 9.29887C33.2497 10.1783 33.0514 11.0625 32.6678 11.6285C33.3981 12.3715 33.7773 13.9136 33.7773 15.4466C33.7773 17.5542 33.0644 19.6873 31.7016 19.7228L13.787 21.858C13.7664 21.8606 13.7458 21.8617 13.7251 21.8617C13.704 21.8617 13.6831 21.8606 13.6623 21.858L9.50369 21.3524L9.50369 23.4654C9.50369 23.7056 9.34551 23.9165 9.11696 23.9807C9.07006 23.9937 9.0229 24 8.976 24C8.79408 24 8.62067 23.9044 8.52357 23.7405L7.34426 21.7494L6.23195 23.2514C6.09568 23.4357 5.85862 23.5114 5.64292 23.4377C5.42749 23.3652 5.28218 23.161 5.28218 22.9308L5.28218 20.8393L0.470129 20.2542C0.192892 20.2203 -0.0103968 19.9739 0.00635738 19.6914C0.0228445 19.409 0.25371 19.1887 0.532988 19.1887C0.905073 19.1887 1.58837 17.9707 1.58837 15.9812C1.58837 14.0084 0.940364 12.8666 0.532988 12.7737C0.241572 12.7737 -0.000371121 12.5351 -0.000371096 12.2396C-0.000371072 11.965 0.199557 11.739 0.462409 11.7092C0.482989 11.7066 0.504165 11.705 0.525271 11.7045C0.67652 11.6455 1.06068 10.9966 1.06068 9.83345C1.06068 8.65723 0.669795 8.01044 0.520854 7.9624ZM1.71653 7.03502L13.7195 8.49237C13.8722 8.43056 14.2529 7.78786 14.2529 6.62593C14.2529 5.45338 13.8623 4.80292 13.7252 4.75488C13.7252 4.75488 13.725 4.75481 13.7249 4.75481C13.7041 4.75474 13.6834 4.75381 13.6623 4.7512L1.84021 3.3159C2.02404 3.82844 2.11605 4.43526 2.11605 5.02217C2.11605 5.75055 1.98083 6.4832 1.71653 7.03502ZM19.3463 1.12136C18.7681 1.0514 18.1812 1.05247 17.602 1.12136L5.00106 2.62248L13.7262 3.68183L26.5127 2.15498C26.5142 2.15478 26.5155 2.15552 26.5171 2.15532C26.5174 2.15532 26.5177 2.15505 26.5181 2.15498L27.1877 2.07547L19.3463 1.12136ZM15.0312 8.33574L26.4518 6.97829C26.5766 6.53779 26.6536 5.9283 26.6536 5.28947C26.6536 4.94125 26.6332 4.60453 26.593 4.28865C26.5567 4.00445 26.7499 3.74785 27.0254 3.69794C26.9836 3.50582 26.9338 3.33662 26.8784 3.18867L26.6412 3.21687C26.6398 3.21701 26.6386 3.21641 26.6373 3.21654C26.6369 3.21654 26.6367 3.21681 26.6363 3.21687L14.9109 4.61702C15.1738 5.16838 15.3083 5.89923 15.3083 6.62593C15.3083 7.21418 15.216 7.82254 15.0312 8.33574ZM31.6735 2.61914L29.7694 2.84534C29.9472 3.36763 30.0835 4.02864 30.0835 4.75488C30.0835 5.42398 30.0117 6.05165 29.8867 6.56659L31.655 6.36018C31.8037 6.31059 32.1943 5.66014 32.1943 4.48759C32.1943 3.33382 31.8163 2.68596 31.6735 2.61914ZM31.6709 7.43095L29.1711 7.72618C29.1624 7.72765 29.1555 7.7332 29.1467 7.73426L20.2152 8.79595C20.2503 8.87868 20.2839 8.96602 20.3162 9.0585C20.3267 9.05536 20.3345 9.04768 20.3453 9.04514C20.6282 8.97985 20.9127 9.15794 20.9784 9.44608C21.0674 9.83813 21.1128 10.2381 21.1128 10.6353C21.1128 11.3065 21.0298 11.932 20.8832 12.4516L27.42 11.6748C27.424 11.6746 27.4276 11.6735 27.4316 11.6734L29.535 11.4234C29.5395 11.4232 29.5438 11.4219 29.5483 11.4218L31.655 11.1715C31.8037 11.1219 32.1943 10.4714 32.1943 9.29887C32.1943 8.13641 31.811 7.48889 31.6709 7.43095ZM31.6047 18.6578C31.6251 18.6552 31.646 18.6541 31.6666 18.6541C32.0387 18.6541 32.722 17.4361 32.722 15.4466C32.722 13.4696 32.0478 12.2572 31.6742 12.2419L30.4745 12.3847C30.8821 13.2408 31.1283 14.4858 31.1283 15.8527C31.1283 16.9393 30.9725 17.9588 30.7013 18.7654L31.6047 18.6578ZM27.3993 19.159C27.7486 18.4563 27.9622 17.3227 27.9622 16.1096C27.9622 14.5452 27.612 13.316 27.2275 12.7713L20.0708 13.6233C20.0551 13.6247 20.0405 13.633 20.0248 13.633C20.0207 13.633 20.0168 13.6309 20.0127 13.6308C20.3735 14.4824 20.5852 15.6653 20.5852 16.9381C20.5852 18.1081 20.4043 19.1981 20.0964 20.0295L27.3993 19.159ZM15.2557 20.6064L16.7401 20.4296C17.0934 19.8598 17.419 18.6957 17.419 17.1626C17.419 15.8855 17.1846 14.698 16.8105 14.0115L15.0732 14.2183C15.5759 15.0424 15.8359 16.3167 15.8359 17.585C15.8359 18.6325 15.6489 19.7683 15.2557 20.6064ZM15.0312 13.147L17.579 12.8442C17.7247 12.4068 17.8148 11.8015 17.8148 11.1699C17.8148 10.1079 17.595 9.3997 17.4288 9.1272L14.9095 9.42663C15.1731 9.97826 15.3083 10.7096 15.3083 11.4372C15.3083 12.0255 15.216 12.6338 15.0312 13.147ZM5.28218 19.7622L5.28218 16.5631L4.9506 16.5226C4.66122 16.4877 4.45457 16.2214 4.4894 15.928C4.5237 15.6351 4.79216 15.4248 5.07586 15.4608L5.86884 15.5577C5.87023 15.5579 5.87141 15.5572 5.8728 15.5573L9.03893 15.9421C9.04466 15.9428 9.04928 15.9464 9.05502 15.9473L9.71298 16.0277C10.0024 16.0622 10.2095 16.3279 10.1755 16.6213C10.144 16.8933 9.91601 17.0932 9.65217 17.0932C9.63159 17.0932 9.61068 17.0921 9.58983 17.0895L9.50375 17.079L9.50375 20.2753L13.7258 20.7889L13.7724 20.7833C14.1355 20.6939 14.7806 19.5536 14.7806 17.585C14.7806 15.5954 14.0973 14.3774 13.7252 14.3774C13.7044 14.3774 13.6832 14.3764 13.6623 14.3738L2.06289 12.965C2.45516 13.8028 2.64374 14.9345 2.64374 15.9812C2.64374 17.2482 2.38583 18.5252 1.88413 19.349L5.28218 19.7622ZM13.7193 13.3038C13.8718 13.2424 14.2529 12.5995 14.2529 11.4372C14.2529 10.2647 13.8623 9.6142 13.7252 9.56616C13.7044 9.56616 13.6832 9.56509 13.6623 9.56248L1.84021 8.12718C2.02404 8.63972 2.11605 9.24654 2.11605 9.83345C2.11605 10.5658 1.9716 11.2915 1.70433 11.8444L13.7193 13.3038Z" fill="#519D9E"/>
</svg>
