<svg width="24" height="24" viewBox="0 0 24 24" fill="none" xmlns="http://www.w3.org/2000/svg">
<path d="M23.618 23.616C23.371 23.8598 23.038 23.9964 22.691 23.9964C22.344 23.9964 22.0109 23.8598 21.7639 23.616L15.1437 16.9959L14.2167 16.0688C14.0948 15.9472 13.998 15.8027 13.932 15.6436C13.866 15.4846 13.832 15.314 13.832 15.1418C13.832 14.9696 13.866 14.799 13.932 14.64C13.998 14.4809 14.0948 14.3364 14.2167 14.2148C14.3383 14.0928 14.4828 13.9961 14.6419 13.9301C14.801 13.8641 14.9715 13.8301 15.1437 13.8301C15.316 13.8301 15.4865 13.8641 15.6456 13.9301C15.8047 13.9961 15.9492 14.0928 16.0708 14.2148L16.9978 15.1418L23.618 21.762C23.8617 22.009 23.9984 22.342 23.9984 22.689C23.9984 23.036 23.8617 23.3691 23.618 23.616Z" fill="#E0EAF1"/>
<path d="M23.6175 0.382513C23.3705 0.138787 23.0375 0.00213492 22.6905 0.00213492C22.3435 0.00213492 22.0104 0.138787 21.7634 0.382513L12.0007 10.1452L2.23806 0.382513C1.99173 0.137522 1.65844 0 1.31103 0C0.96361 0 0.630319 0.137522 0.383991 0.382513C0.140265 0.629508 0.00361236 0.962549 0.00361236 1.30955C0.00361236 1.65655 0.140265 1.98959 0.383991 2.23658L10.1467 11.9993L0.383991 21.7619C0.138126 22.0078 0 22.3413 0 22.689C0 23.0367 0.138126 23.3701 0.383991 23.616C0.629856 23.8619 0.96332 24 1.31103 24C1.65873 24 1.9922 23.8619 2.23806 23.616L23.6175 2.23658C23.8625 1.99026 24 1.65696 24 1.30955C24 0.962132 23.8625 0.628841 23.6175 0.382513Z" fill="#E0EAF1"/>
</svg>
