<svg width="33" height="32" viewBox="0 0 33 32" fill="none" xmlns="http://www.w3.org/2000/svg">
<g clip-path="url(#clip0_447_1978)">
<path fill-rule="evenodd" clip-rule="evenodd" d="M16.7773 0C7.94081 0 0.777344 7.16347 0.777344 16C0.777344 24.8365 7.94081 32 16.7773 32C25.6139 32 32.7773 24.8365 32.7773 16C32.7773 7.16347 25.6139 0 16.7773 0ZM18.4451 16.7028V25.4077H14.8434V16.7031H13.044V13.7034H14.8434V11.9024C14.8434 9.4552 15.8594 8 18.7461 8H21.1494V11.0001H19.6472C18.5235 11.0001 18.4491 11.4193 18.4491 12.2017L18.4451 13.7031H21.1664L20.8479 16.7028H18.4451Z" fill="#519D9E"/>
</g>
<defs>
<clipPath id="clip0_447_1978">
<rect width="32" height="32" fill="white" transform="translate(0.777344)"/>
</clipPath>
</defs>
</svg>
