<svg width="155" height="58" viewBox="0 0 155 58" fill="none" xmlns="http://www.w3.org/2000/svg">
<g clip-path="url(#clip0_447_1838)">
<path d="M66.6022 42.339C66.6022 42.7322 66.4874 43.0712 66.2578 43.3695C65.0019 43.9119 61.5314 45.4983 59.1884 45.4983H41.2617V40.8678C41.2617 40.1559 41.4643 39.5186 41.8627 38.9559C42.5514 38.8068 43.976 38.7322 46.1502 38.7322L57.3248 38.3593L66.5954 42.339H66.6022Z" fill="#519D9E"/>
<path d="M94.3672 0C94.3672 2.71864 92.902 4.99661 89.9783 6.8339C89.3909 7.2 86.3863 8.61017 80.9509 11.0576C79.8773 11.5458 77.5478 12.9085 73.976 15.139C73.976 18.5898 74.3001 22.5966 74.955 27.1525L76.6633 39.0915H77.8854C78.7294 39.0915 79.884 38.9695 81.3492 38.7254C82.8482 38.6034 84.4079 38.4814 86.0352 38.3593L84.5362 45.2949L70.9578 46.8475L70.5662 46.5559C70.1746 44.6237 69.9788 42.6034 69.9788 40.4949C68.1557 42.2847 66.5487 43.4102 65.1511 43.878C64.3341 44.1492 61.7345 44.5898 57.3457 45.2V38.3661L64.5704 37.3763C67.0079 36.861 68.6351 36.0542 69.4521 34.9492C69.4521 32.1559 68.9997 26.9492 68.0882 19.3356L72.1867 15.5864C72.4163 14.0949 73.5709 11.7763 75.6505 8.64407C77.6694 7.29491 80.7078 5.65424 84.7725 3.72203C89.2289 1.61356 92.4361 0.379661 94.3874 0.0135593L94.3672 0Z" fill="#519D9E"/>
<path d="M1.39104 19.4305C2.60641 21.6475 2.7212 21.3085 4.83459 22.0068C7.50164 22.8881 10.216 23.6339 13.0248 23.783C17.2449 24 22.7208 24.0746 29.439 24.0068C39.1215 23.8915 45.9816 23.4915 50.026 22.8C49.0605 19.6678 45.3199 17.878 38.7974 17.4305C37.4942 17.3424 30.884 17.0847 19.1287 17.3627C16.806 17.4102 8.29163 17.3153 0.324219 16.7864" fill="#519D9E"/>
<path d="M7.66406 37.2339C8.19747 38.0949 8.47431 38.8949 9.48712 40.1017C11.7355 42.7864 15.0103 44.4 18.4943 44.6915C23.5516 45.1119 30.6953 45.6 37.3326 45.539C47.015 45.4237 53.8751 45.0237 57.9196 44.3322C56.954 41.2 53.2134 39.4102 46.6909 38.9627C45.3878 38.8746 38.8518 38.9627 27.0965 39.2407C24.7738 39.2881 12.5323 39.722 7.71808 37.322" fill="#519D9E"/>
<path d="M7.19141 35.5254C7.70456 35.7763 10.7092 37.478 15.1791 37.8644C19.4666 37.939 25.9283 37.9797 34.5642 37.9932C44.0238 38 50.8231 37.9593 54.9486 37.8644C54.8811 37.3763 51.7347 37.0847 45.5093 36.9966C44.2669 36.9763 37.8727 36.9763 26.347 36.983C24.0715 36.983 19.1223 36.9288 11.5127 36.8271" fill="#519D9E"/>
<path d="M6.51562 33.6475C7.02878 33.8983 9.98618 35.478 14.456 35.8712C18.7436 35.9458 25.2053 35.9864 33.8412 36C43.3008 36.0068 50.1001 35.9661 54.2256 35.8712C54.1581 35.3831 51.0116 35.0915 44.7862 35.0034C43.5439 34.9831 37.1497 34.9831 25.6239 34.9898C23.3485 34.9898 18.3992 34.9356 10.7897 34.8339" fill="#519D9E"/>
<path d="M5.82715 31.261C6.3403 31.5119 9.3112 33.1254 13.7811 33.5186C18.0686 33.5932 24.5303 33.6339 33.1662 33.6475C42.6258 33.6542 49.4251 33.6136 53.5506 33.5186C53.4831 33.0305 50.3366 32.739 44.1113 32.6508C42.8689 32.6305 36.4747 32.6305 24.9489 32.6373C22.6735 32.6373 17.7243 32.5831 10.1147 32.4814" fill="#519D9E"/>
<path d="M5.07812 28.6508C5.59128 28.9017 8.64321 30.739 13.1131 31.1254C17.4006 31.2 23.8623 31.2407 32.4982 31.2542C41.9578 31.261 48.7571 31.2203 52.8826 31.1254C52.8151 30.6373 49.6686 30.3458 43.4433 30.2576C42.2009 30.2373 35.8067 30.2373 24.2809 30.2441C22.0055 30.2441 17.0563 30.1898 9.4467 30.0881" fill="#519D9E"/>
<path d="M3.51074 25.7153C4.0239 25.9661 7.19736 28.1288 11.6672 28.522C15.9548 28.5966 22.4165 28.6373 31.0523 28.6508C40.512 28.6576 47.3113 28.617 51.4368 28.522C51.3693 28.0339 48.2228 27.7424 41.9974 27.6542C40.755 27.6339 34.3608 27.6339 22.8351 27.6407C20.5597 27.6407 15.6104 27.5864 8.00085 27.4847" fill="#519D9E"/>
<path d="M2.49121 22.9559C3.00437 23.2068 6.46142 25.7153 10.9313 26.1085C15.2188 26.183 21.6805 26.2237 30.3164 26.2373C39.776 26.2441 46.5753 26.2034 50.7008 26.1085C50.6333 25.6203 47.4869 25.3288 41.2615 25.2407C40.0191 25.2203 33.6249 25.2203 22.0992 25.2271C19.8237 25.2271 14.8745 25.1729 7.26491 25.0712" fill="#519D9E"/>
<path d="M125.953 33.6678C125.69 34.4 124.616 36.4339 122.726 39.7627L94.0362 43.8441C92.8006 45.4373 90.8019 47.722 88.0404 50.6915L87.8918 50.5424L90.6264 44.2983C89.1004 44.6169 87.0613 44.861 84.5293 45.3017V38.5627C86.744 38.1966 90.3698 37.6339 95.4136 36.8746C97.2366 34.1831 99.3838 31.7288 101.855 29.5254C105.272 26.461 108.296 24.9356 110.93 24.9356C113.009 24.9356 115.71 26.3932 119.032 29.3017C122.348 32.2169 124.657 33.6678 125.96 33.6678H125.953ZM108.047 52.4949C107.203 54.5017 105.994 56.339 104.434 58.0068C101.409 57.3695 99.377 56.6712 98.3372 55.9119V55.7627C98.3372 55.3695 98.8234 54.4407 99.8024 52.9695C100.714 51.5729 101.396 50.6644 101.855 50.2508C102.537 50.2508 103.624 50.5356 105.123 51.0983C106.487 51.6136 107.466 52.0746 108.053 52.4949H108.047ZM112.537 34.4136C112.375 33.5593 111.713 32.8 110.558 32.1559C109.404 31.5051 108.242 31.1797 107.068 31.1797C104.367 31.1797 101.49 32.9424 98.4318 36.4678C101.551 36.0271 106.257 35.3424 112.53 34.4068L112.537 34.4136Z" fill="#519D9E"/>
<path d="M144.176 45.4983C141.739 45.7898 136.675 46.6237 129.004 48L128.518 47.6678C128.194 41.5458 127.654 32.3729 126.911 20.1424C129.544 17.3763 131.55 15.6949 132.914 15.1051L135.014 39.9797H136.182C137.222 39.9797 139.889 39.5525 144.183 38.6915V45.4915L144.176 45.4983Z" fill="#519D9E"/>
<path d="M154.068 37.2813L154.264 38.0135C154.264 40.339 153.204 42.1424 151.09 43.4169C149.301 44.4949 146.897 45.2339 143.866 45.6203C142.11 45.8169 139.004 46.183 134.548 46.7254V39.8847C138.16 39.4169 144.662 38.5491 154.061 37.2813H154.068ZM155 15.5322C154.905 16.3932 154.237 18.0407 153.001 20.4949C152.38 20.8136 150.449 21.1593 147.194 21.5254C144.365 21.8441 142.232 22 140.8 22C140.314 22 139.902 21.9729 139.578 21.9254V21.5932C139.578 20.3186 140.145 18.8271 141.286 17.1119C142.59 16.7661 144.797 16.4136 147.924 16.0475C150.949 15.7017 153.224 15.5322 154.757 15.5322H155Z" fill="#519D9E"/>
<path d="M66.7507 50.6915C45.2049 50.9492 21.7888 51.0576 0.317262 51.0169H-0.00683594V50.6983C-0.00683594 38.4949 0.0741886 24.9559 0.175469 12.6847C0.182221 12.6712 0.324014 0 0.324014 0L0.465807 12.6712C0.580592 24.9695 0.627856 38.461 0.641361 50.6847L0.317262 50.3593C21.7618 50.3186 45.2319 50.4136 66.7507 50.6847V50.6915Z" fill="#519D9E"/>
<path d="M104.238 22C100.632 26.278 96.696 30.2373 92.4287 33.8576C96.0343 29.5729 99.9775 25.6271 104.238 22Z" fill="#519D9E"/>
<path d="M138.397 39.6746C136.993 27.9593 136.034 16.122 135.534 4.32542C136.939 16.0475 137.897 27.8847 138.397 39.6746Z" fill="#519D9E"/>
<path d="M80.525 38.3593C79.1678 31.3356 78.263 24.1763 77.8174 17.0373C79.1745 24.0678 80.0793 31.2203 80.525 38.3593Z" fill="#519D9E"/>
<path d="M122.806 43.3763C104.819 46.1491 84.8532 48.7186 66.751 50.6102C84.7452 47.8373 104.704 45.261 122.806 43.3763Z" fill="#519D9E"/>
<path d="M154.345 47.9932C145.986 49.5458 137.492 50.6441 129.012 51.2746C137.378 49.722 145.865 48.6237 154.345 47.9932Z" fill="#519D9E"/>
</g>
<defs>
<clipPath id="clip0_447_1838">
<rect width="155" height="58" fill="white"/>
</clipPath>
</defs>
</svg>
