<svg width="48" height="36" viewBox="0 0 48 36" fill="none" xmlns="http://www.w3.org/2000/svg">
<path d="M46.3448 15.5172C44.3586 15.5172 42.5379 16.5103 41.5448 18.331C40.8828 19.4896 40.0552 20.4827 39.0621 21.3103C38.4 21.9724 38.2345 22.9655 38.8966 23.6276C39.2276 23.9586 39.7241 24.2896 40.2207 24.2896C40.5517 24.2896 41.0483 24.1241 41.2138 23.9586C42.5379 22.8 43.6965 21.6414 44.5241 20.1517C45.0207 19.4896 45.6828 18.9931 46.3448 18.9931C47.3379 18.9931 48 18.331 48 17.3379C48 16.3448 47.3379 15.5172 46.3448 15.5172Z" fill="#519D9E"/>
<path d="M42.2069 9.88963C41.5448 9.22756 40.5517 9.22756 39.8897 9.88963C38.8966 10.8827 37.4069 11.2138 36.0828 10.7172C35.4207 10.5517 34.9241 10.7172 34.4276 11.0483L28.9655 16.5103C27.3103 18.1655 24.4966 18.331 22.3448 17.0069L29.2966 10.0551C29.9586 9.39308 29.9586 8.39998 29.2966 7.73791C28.6345 7.07584 27.6414 7.07584 26.9793 7.73791L25.8207 8.89653H21.1862C23.3379 5.7517 26.8138 3.93101 30.6207 3.93101H46.3448C47.3379 3.93101 48 3.26894 48 2.27584C48 1.28274 47.3379 0.620667 46.3448 0.620667H30.6207C24.9931 0.620667 19.8621 3.93101 17.3793 8.89653H4.96552C2.15172 8.89653 0 11.0483 0 13.862V15.5172H19.2L18.7034 16.0138C18.0414 16.6758 18.0414 17.6689 18.7034 18.331C18.869 18.4965 19.0345 18.662 19.3655 18.8276H0V30.4138C0 33.2276 2.15172 35.3793 4.96552 35.3793H33.1035C35.9172 35.3793 38.069 33.2276 38.069 30.4138V14.1931C39.5586 14.0276 41.0483 13.3655 42.2069 12.2069C42.869 11.5448 42.869 10.5517 42.2069 9.88963ZM11.5862 28.7586H8.27586C7.28276 28.7586 6.62069 28.0965 6.62069 27.1034C6.62069 26.1103 7.28276 25.4483 8.27586 25.4483H11.5862C12.5793 25.4483 13.2414 26.1103 13.2414 27.1034C13.2414 28.0965 12.5793 28.7586 11.5862 28.7586ZM28.1379 28.7586C27.1448 28.7586 26.3172 28.262 25.6552 27.6C24.9931 28.262 24.1655 28.7586 23.1724 28.7586C21.3517 28.7586 19.8621 27.2689 19.8621 25.4483C19.8621 23.6276 21.3517 22.1379 23.1724 22.1379C24.1655 22.1379 24.9931 22.6345 25.6552 23.2965C26.3172 22.6345 27.1448 22.1379 28.1379 22.1379C29.9586 22.1379 31.4483 23.6276 31.4483 25.4483C31.4483 27.2689 29.9586 28.7586 28.1379 28.7586Z" fill="#519D9E"/>
</svg>
