<svg width="49" height="46" viewBox="0 0 49 46" fill="none" xmlns="http://www.w3.org/2000/svg">
<path fill-rule="evenodd" clip-rule="evenodd" d="M31.9483 38.7241V42.0387C31.9483 43.8702 30.4681 45.3448 28.6422 45.3448H3.80608C1.97464 45.3448 0.5 43.8573 0.5 42.0223V3.97763C0.5 2.14206 1.98841 0.655151 3.82446 0.655151H20.3621V10.5893C20.3621 12.4289 21.8485 13.8965 23.6822 13.8965H31.9483V17.2069H17.0631C14.3144 17.2069 12.0862 19.4286 12.0862 22.1704V33.7606C12.0862 36.5019 14.2975 38.7241 17.0631 38.7241H31.9483ZM22.0172 0.655151V10.5813C22.0172 11.4981 22.7637 12.2414 23.6572 12.2414H31.9483L22.0172 0.655151ZM17.0427 18.862C15.2194 18.862 13.7414 20.352 13.7414 22.1592V33.7718C13.7414 35.5928 15.2349 37.0689 17.0427 37.0689H45.1987C47.0219 37.0689 48.5 35.579 48.5 33.7718V22.1592C48.5 20.3382 47.0065 18.862 45.1987 18.862H17.0427ZM38.569 27.1379V23.8276H45.1897V22.1724H36.9138V33.7586H38.569V28.7931H43.5345V27.1379H38.569ZM17.0517 25.4827V33.7586H18.7069V28.7931H22.0092C23.8419 28.7931 25.3276 27.3237 25.3276 25.4827C25.3276 23.6545 23.848 22.1724 22.0092 22.1724H17.0517V25.4827ZM18.7069 23.8276V27.1379H22.019C22.9321 27.1379 23.6724 26.4032 23.6724 25.4827C23.6724 24.5686 22.9397 23.8276 22.019 23.8276H18.7069ZM26.9828 22.1724V33.7586H31.9402C33.7729 33.7586 35.2586 32.2912 35.2586 30.4385V25.4925C35.2586 23.6589 33.7791 22.1724 31.9402 22.1724H26.9828ZM28.6379 23.8276V32.1034H31.95C32.8632 32.1034 33.6035 31.369 33.6035 30.4486V25.4824C33.6035 24.5685 32.8708 23.8276 31.95 23.8276H28.6379Z" fill="#519D9E"/>
</svg>
