<svg width="40" height="40" viewBox="0 0 40 40" fill="none" xmlns="http://www.w3.org/2000/svg">
<path d="M19.9997 21.6969C15.6716 21.6969 12.1504 18.1758 12.1504 13.8476C12.1504 9.51952 15.6716 5.99835 19.9997 5.99835C24.3278 5.99835 27.849 9.51952 27.849 13.8476C27.849 18.1758 24.3278 21.6969 19.9997 21.6969Z" fill="#519D9E"/>
<path d="M34.1422 5.85781C30.3641 2.08047 25.3422 0 20 0C14.6578 0 9.63516 2.08047 5.85781 5.85781C2.08047 9.63516 0 14.6578 0 20C0 25.3422 2.08047 30.3648 5.85781 34.1422C9.63516 37.9195 14.6578 40 20 40C25.3422 40 30.3641 37.9195 34.1423 34.1422C37.9195 30.3648 40 25.3422 40 20C40 14.6578 37.9195 9.63516 34.1422 5.85781ZM5.40156 31.2008C3.01406 28.0961 1.59219 24.2109 1.59219 20C1.59219 9.85 9.85 1.59219 20 1.59219C30.15 1.59219 38.407 9.85 38.407 20C38.407 24.2125 36.9852 28.0992 34.5953 31.2047C34.0031 29.2235 32.4953 27.4547 30.206 26.1023C27.4398 24.4679 23.7982 23.568 19.9529 23.568C16.1123 23.568 12.4865 24.468 9.74352 26.1039C7.47969 27.4539 5.98828 29.2195 5.40156 31.2008Z" fill="#519D9E"/>
</svg>
