<svg width="41" height="40" viewBox="0 0 41 40" fill="none" xmlns="http://www.w3.org/2000/svg">
<rect x="0.5" width="40" height="40" rx="20" fill="#519D9E"/>
<path d="M30.7454 28.8005L25.4849 23.5395C26.7495 22.0534 27.442 20.178 27.442 18.221C27.442 13.6878 23.7542 10 19.221 10C14.6878 10 11 13.6878 11 18.221C11 22.7542 14.6878 26.442 19.221 26.442C21.0291 26.442 22.7923 25.8399 24.2232 24.7403L29.5147 30.0312C29.679 30.1961 29.8977 30.2865 30.1302 30.2865C30.3623 30.2865 30.5809 30.1961 30.7453 30.0312C31.0849 29.6917 31.0849 29.1395 30.7454 28.8005ZM19.221 11.6442C22.8474 11.6442 25.7978 14.5946 25.7978 18.221C25.7978 21.8474 22.8474 24.7978 19.221 24.7978C15.5946 24.7978 12.6442 21.8474 12.6442 18.221C12.6442 14.5946 15.5946 11.6442 19.221 11.6442Z" fill="#E0EAF1"/>
</svg>
