<svg width="49" height="32" viewBox="0 0 49 32" fill="none" xmlns="http://www.w3.org/2000/svg">
<path d="M39.5 32C36.95 32 35 29.8105 35 26.9474C35 24.0842 36.95 21.8947 39.5 21.8947C42.05 21.8947 44 24.0842 44 26.9474C44 29.8105 42.05 32 39.5 32Z" fill="#519D9E"/>
<path d="M15.5 32C12.95 32 11 29.8105 11 26.9474C11 24.0842 12.95 21.8947 15.5 21.8947C18.05 21.8947 20 24.0842 20 26.9474C20 29.8105 18.05 32 15.5 32Z" fill="#519D9E"/>
<path d="M48.2 15.8316L42.2 7.41053C41.9 6.90526 41.45 6.73684 41 6.73684H33.5V1.68421C33.5 0.673684 32.9 0 32 0H8C7.1 0 6.5 0.673684 6.5 1.68421V3.36842H8C8.9 3.36842 9.5 4.04211 9.5 5.05263C9.5 6.06316 8.9 6.73684 8 6.73684H5C4.1 6.73684 3.5 7.41053 3.5 8.42105C3.5 9.43158 4.1 10.1053 5 10.1053H9.5C10.4 10.1053 11 10.7789 11 11.7895C11 12.8 10.4 13.4737 9.5 13.4737H2C1.1 13.4737 0.5 14.1474 0.5 15.1579C0.5 16.1684 1.1 16.8421 2 16.8421H6.5V26.9474C6.5 27.9579 7.1 28.6316 8 28.6316H8.15C8 28.1263 8 27.4526 8 26.9474C8 22.2316 11.3 18.5263 15.5 18.5263C19.7 18.5263 23 22.2316 23 26.9474C23 27.4526 23 28.1263 22.85 28.6316H32.15C32 28.1263 32 27.4526 32 26.9474C32 22.2316 35.3 18.5263 39.5 18.5263C43.7 18.5263 47 22.2316 47 26.9474C47 27.4526 47 28.1263 46.85 28.6316H47C47.9 28.6316 48.5 27.9579 48.5 26.9474V16.8421C48.5 16.5053 48.35 16.1684 48.2 15.8316Z" fill="#519D9E"/>
</svg>
