<svg width="33" height="32" viewBox="0 0 33 32" fill="none" xmlns="http://www.w3.org/2000/svg">
<g clip-path="url(#clip0_447_1976)">
<path d="M32.7773 16C32.7773 24.8366 25.6139 32 16.7773 32C7.94079 32 0.777344 24.8366 0.777344 16C0.777344 7.16345 7.94079 0 16.7773 0C25.6139 0 32.7773 7.16345 32.7773 16ZM17.3508 11.812C15.7946 12.4593 12.6843 13.799 8.01993 15.8311C7.26251 16.1324 6.86577 16.427 6.82965 16.7151C6.76861 17.202 7.37839 17.3938 8.20873 17.6549C8.32165 17.6904 8.4387 17.7272 8.5587 17.7662C9.37562 18.0318 10.4745 18.3424 11.0458 18.3548C11.564 18.366 12.1424 18.1523 12.781 17.7138C17.1389 14.7721 19.3886 13.2852 19.5298 13.2531C19.6295 13.2305 19.7676 13.202 19.8611 13.2852C19.9546 13.3684 19.9455 13.5258 19.9356 13.5681C19.8751 13.8256 17.4816 16.0508 16.2429 17.2024C15.8568 17.5614 15.5829 17.8161 15.5269 17.8742C15.4014 18.0045 15.2736 18.1278 15.1508 18.2462C14.3918 18.9778 13.8226 19.5265 15.1823 20.4225C15.8356 20.853 16.3585 21.209 16.8801 21.5642C17.4497 21.9522 18.0178 22.3391 18.7529 22.8209C18.9402 22.9437 19.1191 23.0712 19.2933 23.1954C19.9562 23.668 20.5517 24.0926 21.2876 24.0249C21.7151 23.9855 22.1567 23.5835 22.381 22.3845C22.9111 19.5509 23.9529 13.4113 24.1937 10.8814C24.2148 10.6597 24.1883 10.3761 24.1669 10.2515C24.1457 10.127 24.1011 9.94954 23.9393 9.81822C23.7476 9.66265 23.4516 9.62985 23.3193 9.63218C22.7175 9.64277 21.7941 9.96382 17.3508 11.812Z" fill="#519D9E"/>
</g>
<defs>
<clipPath id="clip0_447_1976">
<rect width="32" height="32" fill="white" transform="translate(0.777344)"/>
</clipPath>
</defs>
</svg>
