<svg width="16" height="16" viewBox="0 0 16 16" fill="none" xmlns="http://www.w3.org/2000/svg">
<path fill-rule="evenodd" clip-rule="evenodd" d="M7.14867 0.583442C7.29825 0.229954 7.64504 0 8.02829 0C8.4123 0 8.75909 0.229954 8.90867 0.583442L10.6903 4.79554L15.177 5.42512C15.5483 5.47721 15.8549 5.74066 15.9606 6.1001C16.067 6.45954 15.9539 6.84801 15.6703 7.09284L12.4622 9.87461L13.3254 14.4878C13.3939 14.8532 13.2443 15.2246 12.9422 15.4404C12.64 15.6569 12.2396 15.6778 11.9167 15.4955L8.02829 13.3008L4.15406 15.488C3.8281 15.6718 3.4255 15.6488 3.12336 15.4292C2.82048 15.2097 2.67387 14.8339 2.74755 14.4677L3.59517 10.2497L0.292473 7.06754C0.029031 6.81377 -0.0662249 6.43201 0.0468914 6.08447C0.159264 5.73619 0.460659 5.48391 0.823078 5.43256L5.36708 4.79554L7.14867 0.583442Z" fill="#EFDB1B"/>
</svg>
