<svg width="39" height="96" viewBox="0 0 39 96" fill="none" xmlns="http://www.w3.org/2000/svg">
<path fill-rule="evenodd" clip-rule="evenodd" d="M3.02085 14.9585C3.0192 14.9581 3.01782 14.9572 3.01643 14.9564C3.01505 14.9556 3.01366 14.9547 3.01201 14.9543C2.73049 14.9426 2.49956 14.7124 2.49956 14.4244C2.49956 14.1295 2.7299 13.8909 3.02131 13.8909C3.17006 13.8413 3.56068 13.1908 3.56068 12.0183C3.56068 10.842 3.16979 10.1953 3.02085 10.1472C3.0195 10.1469 3.01836 10.1462 3.01723 10.1455C3.01609 10.1448 3.01495 10.1441 3.0136 10.1437C2.75806 10.1342 2.5398 9.94053 2.50886 9.67531C2.47483 9.38189 2.68175 9.1162 2.97138 9.08171L19.9782 7.05563C20.6394 6.97625 21.3096 6.97625 21.9713 7.05563L34.2295 8.54713C34.2309 8.5473 34.2323 8.5479 34.2336 8.5485C34.2349 8.54907 34.2361 8.54964 34.2376 8.54987C35.2298 8.61676 35.7497 10.0567 35.7497 11.4837C35.7497 12.4031 35.5336 13.3279 35.115 13.8885C35.5339 14.4491 35.7497 15.3752 35.7497 16.295C35.7497 17.1744 35.5514 18.0586 35.1678 18.6246C35.8981 19.3676 36.2773 20.9097 36.2773 22.4427C36.2773 24.5502 35.5644 26.6834 34.2016 26.7189L16.287 28.8541C16.2664 28.8567 16.2458 28.8577 16.2251 28.8577C16.204 28.8577 16.1831 28.8567 16.1623 28.8541L12.0037 28.3485V30.4615C12.0037 30.7017 11.8455 30.9126 11.617 30.9768C11.5701 30.9898 11.5229 30.9961 11.476 30.9961C11.2941 30.9961 11.1207 30.9005 11.0236 30.7366L9.84425 28.7455L8.73195 30.2475C8.59568 30.4318 8.35861 30.5075 8.14292 30.4338C7.92749 30.3613 7.78218 30.1571 7.78218 29.9269L7.78218 27.8354L2.97013 27.2503C2.69289 27.2164 2.4896 26.97 2.50636 26.6875C2.52285 26.4051 2.75371 26.1848 3.03299 26.1848C3.40508 26.1848 4.08837 24.9668 4.08837 22.9773C4.08837 21.0045 3.44036 19.8627 3.03299 19.7698C2.74157 19.7698 2.49963 19.5312 2.49963 19.2357C2.49963 18.9611 2.69956 18.7351 2.96241 18.7053C2.98299 18.7027 3.00416 18.7011 3.02527 18.7006C3.17652 18.6416 3.56068 17.9927 3.56068 16.8295C3.56068 15.6533 3.16979 15.0065 3.02085 14.9585ZM4.21653 14.0311L16.2195 15.4885C16.3722 15.4267 16.7529 14.784 16.7529 13.622C16.7529 12.4495 16.3623 11.799 16.2252 11.751C16.2044 11.7509 16.1834 11.7499 16.1623 11.7473L4.34021 10.312C4.52404 10.8245 4.61605 11.4314 4.61605 12.0183C4.61605 12.7466 4.48083 13.4793 4.21653 14.0311ZM21.8463 8.11746C21.2681 8.04749 20.6812 8.04856 20.102 8.11746L7.50106 9.61857L16.2262 10.6779L29.0127 9.15108C29.0134 9.15098 29.0141 9.15111 29.0148 9.15124C29.0153 9.15134 29.0158 9.15143 29.0164 9.15145C29.0161 9.15148 29.0166 9.15145 29.0164 9.15145C29.0167 9.15145 29.0177 9.15115 29.0181 9.15108L29.6877 9.07156L21.8463 8.11746ZM17.5312 15.3318L28.9518 13.9744C29.0766 13.5339 29.1536 12.9244 29.1536 12.2856C29.1536 11.9373 29.1332 11.6006 29.093 11.2847C29.0567 11.0005 29.2499 10.7439 29.5254 10.694C29.4836 10.5019 29.4338 10.3327 29.3784 10.1848L29.1412 10.213C29.1405 10.213 29.1399 10.2129 29.1392 10.2128C29.1386 10.2127 29.138 10.2126 29.1373 10.2126L29.1363 10.213L17.4109 11.6131C17.6738 12.1645 17.8083 12.8953 17.8083 13.622C17.8083 14.2103 17.716 14.8186 17.5312 15.3318ZM34.1735 9.61524L32.2694 9.84143C32.4472 10.3637 32.5835 11.0247 32.5835 11.751C32.5835 12.4201 32.5117 13.0477 32.3867 13.5627L34.155 13.3563C34.3037 13.3067 34.6943 12.6562 34.6943 11.4837C34.6943 10.3299 34.3163 9.68206 34.1735 9.61524ZM34.1709 14.427L31.6711 14.7223C31.6669 14.723 31.6632 14.7246 31.6595 14.7262C31.6554 14.728 31.6513 14.7298 31.6467 14.7304L22.7152 15.792C22.7503 15.8748 22.7839 15.9621 22.8162 16.0546C22.8211 16.0531 22.8255 16.0506 22.8298 16.0482C22.8347 16.0454 22.8396 16.0426 22.8453 16.0412C23.1282 15.9759 23.4127 16.154 23.4784 16.4422C23.5674 16.8342 23.6128 17.2342 23.6128 17.6314C23.6128 18.3026 23.5298 18.9281 23.3832 19.4477L29.92 18.6709C29.9219 18.6708 29.9237 18.6705 29.9256 18.6702C29.9275 18.6699 29.9295 18.6695 29.9316 18.6695L32.035 18.4195C32.0371 18.4194 32.0392 18.419 32.0413 18.4187C32.0436 18.4183 32.0459 18.418 32.0483 18.4179L34.155 18.1676C34.3037 18.118 34.6943 17.4675 34.6943 16.295C34.6943 15.1325 34.311 14.485 34.1709 14.427ZM34.1047 25.6539C34.1251 25.6513 34.146 25.6502 34.1666 25.6502C34.5387 25.6502 35.222 24.4322 35.222 22.4427C35.222 20.4657 34.5478 19.2533 34.1742 19.238L32.9745 19.3808C33.3821 20.2369 33.6283 21.4819 33.6283 22.8488C33.6283 23.9354 33.4725 24.9549 33.2013 25.7615L34.1047 25.6539ZM29.8993 26.1551C30.2486 25.4524 30.4622 24.3188 30.4622 23.1057C30.4622 21.5413 30.112 20.3121 29.7275 19.7674L22.5708 20.6194C22.5637 20.62 22.5568 20.6221 22.5499 20.6241C22.5416 20.6266 22.5334 20.6291 22.5248 20.6291C22.5207 20.6291 22.5168 20.627 22.5127 20.6268C22.8735 21.4784 23.0852 22.6614 23.0852 23.9342C23.0852 25.1042 22.9043 26.1942 22.5964 27.0256L29.8993 26.1551ZM17.7557 27.6025L19.2401 27.4257C19.5934 26.8559 19.919 25.6918 19.919 24.1587C19.919 22.8816 19.6846 21.6941 19.3105 21.0076L17.5732 21.2144C18.0759 22.0385 18.3359 23.3128 18.3359 24.5811C18.3359 25.6286 18.1489 26.7644 17.7557 27.6025ZM17.5312 20.1431L20.079 19.8403C20.2247 19.4029 20.3148 18.7976 20.3148 18.166C20.3148 17.104 20.095 16.3958 19.9288 16.1233L17.4095 16.4227C17.6731 16.9744 17.8083 17.7057 17.8083 18.4333C17.8083 19.0216 17.716 19.6299 17.5312 20.1431ZM7.78218 26.7583V23.5592L7.4506 23.5187C7.16122 23.4837 6.95457 23.2175 6.9894 22.9241C7.0237 22.6312 7.29216 22.4209 7.57586 22.4569L8.36884 22.5538L8.37044 22.5537C8.37121 22.5536 8.37197 22.5534 8.3728 22.5534L11.5389 22.9382C11.5419 22.9386 11.5445 22.9397 11.5471 22.9408C11.5497 22.9419 11.5522 22.9429 11.555 22.9433L12.213 23.0238C12.5024 23.0583 12.7095 23.324 12.6755 23.6174C12.644 23.8894 12.416 24.0893 12.1522 24.0893C12.1316 24.0893 12.1107 24.0882 12.0898 24.0856L12.0038 24.0751V27.2714L16.2258 27.785L16.2724 27.7794C16.6355 27.69 17.2806 26.5497 17.2806 24.5811C17.2806 22.5915 16.5973 21.3735 16.2252 21.3735C16.2043 21.3735 16.1832 21.3725 16.1623 21.3699L4.56289 19.9611C4.95516 20.7989 5.14374 21.9306 5.14374 22.9773C5.14374 24.2443 4.88583 25.5213 4.38414 26.3451L7.78218 26.7583ZM16.2193 20.2999C16.3718 20.2385 16.7529 19.5956 16.7529 18.4333C16.7529 17.2608 16.3623 16.6103 16.2252 16.5623C16.2043 16.5623 16.1832 16.5612 16.1623 16.5586L4.3402 15.1233C4.52404 15.6358 4.61605 16.2426 4.61605 16.8295C4.61605 17.5619 4.4716 18.2876 4.20432 18.8405L16.2193 20.2999Z" fill="#519D9E"/>
<path fill-rule="evenodd" clip-rule="evenodd" d="M0.5 39.4961C0.5 38.9438 0.947715 38.4961 1.5 38.4961H38C38.5523 38.4961 39 38.9438 39 39.4961C39 40.0484 38.5523 40.4961 38 40.4961H13.5V68.0671H23.5C23.5362 68.0671 23.5719 68.069 23.6071 68.0727C24.0239 66.3087 25.6087 64.9961 27.5 64.9961C29.7091 64.9961 31.5 66.787 31.5 68.9961C31.5 70.6563 30.4885 72.0803 29.0482 72.6854C28.572 72.8855 28.0489 72.9961 27.5 72.9961C27.1547 72.9961 26.8196 72.9523 26.5 72.8701C25.9823 72.7368 25.5052 72.5026 25.091 72.1896C24.3966 71.665 23.8788 70.9192 23.6422 70.057C23.5958 70.0636 23.5483 70.0671 23.5 70.0671H13.5V76.0078H23.5C23.5543 76.0078 23.6076 76.0121 23.6595 76.0205C23.8878 75.3504 24.3464 74.787 24.9411 74.4246C25.3954 74.1478 25.9291 73.9883 26.5 73.9883C26.8506 73.9883 27.1872 74.0484 27.5 74.159C27.9355 74.3129 28.3249 74.5646 28.6418 74.8876C29.1726 75.4288 29.5 76.1703 29.5 76.9883C29.5 77.8171 29.1639 78.5674 28.6206 79.1103C28.3076 79.4231 27.9259 79.6671 27.5 79.8176C27.1872 79.9281 26.8506 79.9883 26.5 79.9883C25.939 79.9883 25.4139 79.8343 24.9648 79.5662C24.3696 79.211 23.9079 78.6556 23.6724 77.993C23.6164 78.0027 23.5588 78.0078 23.5 78.0078H13.5V83.9883H23.5C23.5435 83.9883 23.5864 83.9911 23.6285 83.9965C23.8609 83.1024 24.3949 82.3299 25.1154 81.7941C25.5239 81.4902 25.9925 81.2625 26.5 81.1319C26.8196 81.0496 27.1547 81.0059 27.5 81.0059C28.0392 81.0059 28.5535 81.1126 29.023 81.306C30.4767 81.905 31.5 83.336 31.5 85.0059C31.5 87.215 29.7091 89.0059 27.5 89.0059C25.6273 89.0059 24.0552 87.7189 23.6198 85.9812C23.5805 85.9859 23.5405 85.9883 23.5 85.9883H11.5V40.4961H1.5C0.947715 40.4961 0.5 40.0484 0.5 39.4961ZM29.5 68.9961C29.5 70.1007 28.6046 70.9961 27.5 70.9961C26.3954 70.9961 25.5 70.1007 25.5 68.9961C25.5 67.8915 26.3954 66.9961 27.5 66.9961C28.6046 66.9961 29.5 67.8915 29.5 68.9961ZM27.5 76.9883C27.5 77.5406 27.0523 77.9883 26.5 77.9883C25.9477 77.9883 25.5 77.5406 25.5 76.9883C25.5 76.436 25.9477 75.9883 26.5 75.9883C27.0523 75.9883 27.5 76.436 27.5 76.9883ZM29.5 85.0059C29.5 86.1104 28.6046 87.0059 27.5 87.0059C26.3954 87.0059 25.5 86.1104 25.5 85.0059C25.5 83.9013 26.3954 83.0059 27.5 83.0059C28.6046 83.0059 29.5 83.9013 29.5 85.0059Z" fill="#519D9E"/>
</svg>
