<svg width="70" height="54" viewBox="0 0 70 54" fill="none" xmlns="http://www.w3.org/2000/svg">
<path d="M7.83643 11.4948L0 15.5711L8.57143 19.8569L17.1429 15.5711L9.30642 11.4948C8.85402 11.2156 8.28884 11.2156 7.83643 11.4948Z" fill="#519D9E"/>
<path d="M0 17.1218L7.85714 20.9997V29.8569L0.636143 26.1173C0.238716 25.8524 0 25.4063 0 24.9287V17.1218Z" fill="#519D9E"/>
<path d="M17.1429 17.1218L9.28571 20.9997V29.8569L16.5067 26.1173C16.9041 25.8524 17.1429 25.4063 17.1429 24.9287V17.1218Z" fill="#519D9E"/>
<path d="M40 11.2854H25.7143V16.9997H40V11.2854Z" fill="#519D9E"/>
<path d="M24.2857 16.9997V11.2854H18.5714V16.9997H24.2857ZM21.4286 12.714C22.2176 12.714 22.8571 13.3536 22.8571 14.1426C22.8571 14.9315 22.2176 15.5711 21.4286 15.5711C20.6396 15.5711 20 14.9315 20 14.1426C20 13.3536 20.6396 12.714 21.4286 12.714Z" fill="#519D9E"/>
<path d="M24.2857 18.4283H18.5714V22.714C18.5714 23.5029 19.211 24.1426 20 24.1426H24.2857V18.4283ZM21.4286 22.714C20.6396 22.714 20 22.0744 20 21.2854C20 20.4964 20.6396 19.8569 21.4286 19.8569C22.2176 19.8569 22.8571 20.4964 22.8571 21.2854C22.8571 22.0744 22.2176 22.714 21.4286 22.714Z" fill="#519D9E"/>
<path d="M25.7143 18.4283V24.1426H38.5714C39.3604 24.1426 40 23.5029 40 22.714V18.4283H25.7143Z" fill="#519D9E"/>
<path d="M25.7143 9.85686H40V5.57115C40 4.78214 39.3604 4.14258 38.5714 4.14258H25.7143V9.85686Z" fill="#519D9E"/>
<path d="M24.2857 9.85686V4.14258H20C19.211 4.14258 18.5714 4.78214 18.5714 5.57115V9.85686H24.2857ZM21.4286 5.57115C22.2176 5.57115 22.8571 6.21071 22.8571 6.99972C22.8571 7.78864 22.2176 8.42829 21.4286 8.42829C20.6396 8.42829 20 7.78864 20 6.99972C20 6.21071 20.6396 5.57115 21.4286 5.57115Z" fill="#519D9E"/>
<g filter="url(#filter0_d_1912_26386)">
<path d="M43.3748 12.4541C43.3748 11.7181 43.1584 10.9986 42.7529 10.3869C42.3474 9.77501 41.7712 9.29821 41.097 9.01687C40.4228 8.73553 39.681 8.66228 38.9656 8.80634C38.2501 8.95046 37.5931 9.30538 37.0776 9.82627C36.5622 10.3472 36.2116 11.0106 36.07 11.7326C35.9285 12.4545 36.0025 13.2027 36.2826 13.8822C36.5627 14.5618 37.0364 15.1422 37.6437 15.5502C38.251 15.9581 38.9645 16.1751 39.6941 16.1737C40.178 16.1737 40.6573 16.0775 41.1042 15.8905C41.5512 15.7034 41.9573 15.4294 42.2992 15.0839C42.641 14.7384 42.912 14.3283 43.0966 13.877C43.2812 13.4258 43.3758 12.9422 43.3748 12.4541ZM38.0113 12.4541C38.0113 12.1197 38.1096 11.7928 38.2938 11.5147C38.478 11.2367 38.7397 11.02 39.046 10.892C39.3523 10.764 39.6893 10.7306 40.0144 10.7958C40.3395 10.861 40.6382 11.022 40.8726 11.2586C41.107 11.495 41.2666 11.7962 41.3313 12.1242C41.396 12.4522 41.3628 12.7921 41.2359 13.1011C41.1091 13.41 40.8943 13.6741 40.6186 13.8599C40.343 14.0457 40.0189 14.1448 39.6874 14.1448C39.244 14.1431 38.8194 13.9641 38.5065 13.6473C38.1937 13.3303 38.018 12.9013 38.018 12.4541H38.0113Z" fill="#EB4B5A"/>
<path d="M48.1683 17.8239C47.4391 17.8239 46.7261 18.042 46.1197 18.4508C45.5133 18.8595 45.0407 19.4404 44.7616 20.1201C44.4825 20.7998 44.4095 21.5477 44.5518 22.2693C44.694 22.9908 45.0453 23.6536 45.561 24.1738C46.0766 24.694 46.7337 25.0483 47.4489 25.1918C48.1642 25.3353 48.9057 25.2616 49.5795 24.9801C50.2533 24.6986 50.8292 24.2218 51.2343 23.6101C51.6395 22.9984 51.8557 22.2793 51.8557 21.5436C51.8557 20.5571 51.4673 19.6109 50.7757 18.9134C50.0842 18.2158 49.1463 17.8239 48.1683 17.8239ZM48.1683 23.2344C47.8366 23.2344 47.5122 23.135 47.2365 22.9489C46.9607 22.7628 46.7459 22.4984 46.6192 22.1891C46.4926 21.8797 46.4598 21.5394 46.5249 21.2112C46.5902 20.883 46.7505 20.5818 46.9855 20.3456C47.2207 20.1094 47.5199 19.9489 47.8455 19.8845C48.1711 19.82 48.5083 19.8544 48.8144 19.9835C49.1206 20.1125 49.3819 20.3302 49.5653 20.6091C49.7486 20.8881 49.8458 21.2156 49.8444 21.5503C49.8409 21.9964 49.6628 22.423 49.3488 22.7371C49.0349 23.0513 48.6105 23.2276 48.1683 23.2276V23.2344Z" fill="#EB4B5A"/>
<path d="M49.9652 10.9459C49.8723 10.851 49.7616 10.7757 49.6396 10.7243C49.5177 10.6729 49.3867 10.6464 49.2545 10.6464C49.1223 10.6464 48.9914 10.6729 48.8694 10.7243C48.7475 10.7757 48.6368 10.851 48.5438 10.9459L37.9308 21.618C37.8367 21.7117 37.7621 21.8234 37.7111 21.9464C37.6601 22.0695 37.6339 22.2015 37.6339 22.3349C37.6339 22.4682 37.6601 22.6003 37.7111 22.7233C37.7621 22.8464 37.8367 22.9581 37.9308 23.0518C38.1196 23.2415 38.375 23.3484 38.6414 23.3493C38.9035 23.3589 39.1588 23.2642 39.3521 23.0856L49.9652 12.3796C50.0592 12.286 50.1339 12.1743 50.1849 12.0512C50.2359 11.9282 50.2621 11.7961 50.2621 11.6628C50.2621 11.5294 50.2359 11.3974 50.1849 11.2743C50.1339 11.1513 50.0592 11.0396 49.9652 10.9459Z" fill="#EB4B5A"/>
</g>
<defs>
<filter id="filter0_d_1912_26386" x="18" y="0.734375" width="51.8555" height="52.5293" filterUnits="userSpaceOnUse" color-interpolation-filters="sRGB">
<feFlood flood-opacity="0" result="BackgroundImageFix"/>
<feColorMatrix in="SourceAlpha" type="matrix" values="0 0 0 0 0 0 0 0 0 0 0 0 0 0 0 0 0 0 127 0" result="hardAlpha"/>
<feMorphology radius="2" operator="dilate" in="SourceAlpha" result="effect1_dropShadow_1912_26386"/>
<feOffset dy="10"/>
<feGaussianBlur stdDeviation="8"/>
<feComposite in2="hardAlpha" operator="out"/>
<feColorMatrix type="matrix" values="0 0 0 0 0.180392 0 0 0 0 0.227451 0 0 0 0 0.282353 0 0 0 0.16 0"/>
<feBlend mode="normal" in2="BackgroundImageFix" result="effect1_dropShadow_1912_26386"/>
<feBlend mode="normal" in="SourceGraphic" in2="effect1_dropShadow_1912_26386" result="shape"/>
</filter>
</defs>
</svg>
