<svg width="32" height="32" viewBox="0 0 32 32" fill="none" xmlns="http://www.w3.org/2000/svg">
<path d="M15.9982 17.3577C12.5357 17.3577 9.71875 14.5408 9.71875 11.0783C9.71875 7.61577 12.5357 4.79883 15.9982 4.79883C19.4607 4.79883 22.2776 7.61577 22.2776 11.0783C22.2776 14.5408 19.4607 17.3577 15.9982 17.3577Z" fill="#519D9E"/>
<path d="M27.3138 4.68625C24.2913 1.66438 20.2738 0 16 0C11.7263 0 7.70813 1.66438 4.68625 4.68625C1.66438 7.70813 0 11.7263 0 16C0 20.2738 1.66438 24.2919 4.68625 27.3138C7.70813 30.3356 11.7263 32 16 32C20.2738 32 24.2913 30.3356 27.3138 27.3138C30.3356 24.2919 32 20.2738 32 16C32 11.7263 30.3356 7.70813 27.3138 4.68625ZM4.32125 24.9606C2.41125 22.4769 1.27375 19.3688 1.27375 16C1.27375 7.88 7.88 1.27375 16 1.27375C24.12 1.27375 30.7256 7.88 30.7256 16C30.7256 19.37 29.5881 22.4794 27.6763 24.9638C27.2025 23.3788 25.9963 21.9638 24.1648 20.8818C21.9519 19.5743 19.0386 18.8544 15.9623 18.8544C12.8898 18.8544 9.98919 19.5744 7.79481 20.8831C5.98375 21.9631 4.79063 23.3756 4.32125 24.9606Z" fill="#519D9E"/>
</svg>
