<svg width="19" height="41" viewBox="0 0 19 41" fill="none" xmlns="http://www.w3.org/2000/svg">
<path d="M1 1.5V21.1803M12 37.1016H1V21.1803M1 21.1803H12M1 29.1211H12" stroke="#519D9E" stroke-width="2" stroke-linecap="round"/>
<path d="M18 20.4883C18 22.1451 16.6569 23.4883 15 23.4883C13.3431 23.4883 12 22.1451 12 20.4883C12 18.8314 13.3431 17.4883 15 17.4883C16.6569 17.4883 18 18.8314 18 20.4883ZM16 28.4805C16 29.585 15.1046 30.4805 14 30.4805C12.8954 30.4805 12 29.585 12 28.4805C12 27.3759 12.8954 26.4805 14 26.4805C15.1046 26.4805 16 27.3759 16 28.4805ZM18 36.498C18 38.1549 16.6569 39.498 15 39.498C13.3431 39.498 12 38.1549 12 36.498C12 34.8412 13.3431 33.498 15 33.498C16.6569 33.498 18 34.8412 18 36.498Z" stroke="#519D9E" stroke-width="2"/>
</svg>
