<svg width="32" height="32" viewBox="0 0 32 32" fill="none" xmlns="http://www.w3.org/2000/svg">
<path fill-rule="evenodd" clip-rule="evenodd" d="M16 29.6914C8.43595 29.6914 2.29446 23.5499 2.29446 15.9858C2.29446 11.3525 4.59962 7.25311 8.12237 4.77204C8.64092 4.40646 8.76482 3.69059 8.40077 3.17357C8.03671 2.65502 7.31931 2.53112 6.8023 2.89517C2.6891 5.79231 0 10.577 0 15.9858C0 24.8164 7.16941 31.9858 16 31.9858C16.6333 31.9858 17.1472 31.4718 17.1472 30.8386C17.1472 30.2053 16.6333 29.6914 16 29.6914Z" fill="#519D9E"/>
<path fill-rule="evenodd" clip-rule="evenodd" d="M16.8841 2.30779C24.0367 2.76363 29.7055 8.7185 29.7055 15.9858C29.7055 20.1632 27.8333 23.9047 24.8826 26.4195C24.4008 26.8309 24.3426 27.556 24.7541 28.0378C25.1641 28.5196 25.8891 28.5778 26.3709 28.1663C29.8157 25.2309 32 20.8608 32 15.9858C32 7.50091 25.3813 0.550241 17.0294 0.017927C16.3977 -0.0218436 15.8516 0.458463 15.8119 1.0902C15.7721 1.72194 16.2524 2.26802 16.8841 2.30779Z" fill="#519D9E"/>
<path fill-rule="evenodd" clip-rule="evenodd" d="M27.9159 26.9915H25.2482V24.3239C25.2482 23.6906 24.7342 23.1766 24.101 23.1766C23.4677 23.1766 22.9537 23.6906 22.9537 24.3239V28.1388C22.9537 28.772 23.4677 29.286 24.101 29.286H27.9159C28.5491 29.286 29.0631 28.772 29.0631 28.1388C29.0631 27.5055 28.5491 26.9915 27.9159 26.9915Z" fill="#519D9E"/>
<path fill-rule="evenodd" clip-rule="evenodd" d="M4.97132 3.63093H7.63748V6.29709C7.63748 6.93036 8.15143 7.44431 8.7847 7.44431C9.41797 7.44431 9.93193 6.93036 9.93193 6.29709V2.4837C9.93193 1.85043 9.4195 1.33647 8.7847 1.33647H4.97132C4.33805 1.33647 3.82409 1.85043 3.82409 2.4837C3.82409 3.11697 4.33805 3.63093 4.97132 3.63093Z" fill="#519D9E"/>
<path fill-rule="evenodd" clip-rule="evenodd" d="M16.4436 7.19651C11.5885 7.19651 7.64818 11.1384 7.64818 15.9919C7.64818 20.847 11.5885 24.7873 16.4436 24.7873C21.2971 24.7873 25.239 20.847 25.239 15.9919C25.239 11.1384 21.2971 7.19651 16.4436 7.19651ZM14.914 11.7854V15.6095C14.914 15.9139 15.0348 16.2061 15.2505 16.4218L18.3098 19.481C18.7564 19.9277 19.4845 19.9277 19.9312 19.481C20.3794 19.0328 20.3794 18.3063 19.9312 17.8581L17.2084 15.1353V11.7854C17.2084 11.1522 16.6945 10.6382 16.0612 10.6382C15.4279 10.6382 14.914 11.1522 14.914 11.7854Z" fill="#519D9E"/>
</svg>
