<svg width="32" height="20" viewBox="0 0 32 20" fill="none" xmlns="http://www.w3.org/2000/svg">
<path d="M27.7858 1.62968e-08H4.21424C3.99847 1.62968e-08 3.79154 0.0857139 3.63896 0.238286C3.48639 0.390858 3.40068 0.59779 3.40068 0.813559V18.7281C3.40068 18.9439 3.48639 19.1508 3.63896 19.3034C3.79154 19.456 3.99847 19.5417 4.21424 19.5417H27.7858C28.0015 19.5417 28.2085 19.456 28.361 19.3034C28.5136 19.1508 28.5993 18.9439 28.5993 18.7281V0.797288C28.5951 0.584351 28.5075 0.381575 28.3554 0.232505C28.2032 0.0834342 27.9987 -4.25838e-05 27.7858 1.62968e-08Z" fill="#519D9E"/>
<path d="M31.1864 1.92C30.9744 1.91993 30.7707 2.00265 30.6187 2.15057C30.4667 2.29848 30.3785 2.49988 30.3729 2.71186V16.8136C30.3729 17.0293 30.4586 17.2363 30.6112 17.3888C30.7637 17.5414 30.9707 17.6271 31.1864 17.6271C31.4022 17.6271 31.6091 17.5414 31.7617 17.3888C31.9143 17.2363 32 17.0293 32 16.8136V2.71186C31.9943 2.49988 31.9061 2.29848 31.7542 2.15057C31.6022 2.00265 31.3985 1.91993 31.1864 1.92Z" fill="#519D9E"/>
<path d="M0.813559 1.92C0.601497 1.91993 0.397786 2.00265 0.245822 2.15057C0.0938591 2.29848 0.00565499 2.49988 0 2.71186V16.8136C0 17.0293 0.0857141 17.2363 0.238286 17.3888C0.390858 17.5414 0.59779 17.6271 0.813559 17.6271C1.02933 17.6271 1.23626 17.5414 1.38883 17.3888C1.5414 17.2363 1.62712 17.0293 1.62712 16.8136V2.71186C1.62146 2.49988 1.53326 2.29848 1.3813 2.15057C1.22933 2.00265 1.02562 1.91993 0.813559 1.92Z" fill="#519D9E"/>
</svg>
