<svg width="60" height="60" viewBox="0 0 60 60" fill="none" xmlns="http://www.w3.org/2000/svg">
<g filter="url(#filter0_d_2452_26993)">
<path d="M28.7083 13.401C28.7083 12.3324 28.394 11.2877 27.8053 10.3994C27.2165 9.51101 26.3798 8.8187 25.4009 8.41018C24.4219 8.00167 23.3449 7.89532 22.3061 8.10449C21.2672 8.31375 20.3132 8.82911 19.5647 9.58544C18.8163 10.3418 18.3072 11.305 18.1017 12.3534C17.8962 13.4017 18.0037 14.488 18.4104 15.4747C18.8171 16.4614 19.5049 17.3042 20.3866 17.8966C21.2684 18.4888 22.3045 18.804 23.3638 18.802C24.0665 18.802 24.7624 18.6623 25.4114 18.3907C26.0604 18.1191 26.65 17.7212 27.1464 17.2195C27.6428 16.7179 28.0363 16.1224 28.3043 15.4671C28.5723 14.8119 28.7096 14.1098 28.7083 13.401ZM20.9204 13.401C20.9204 12.9155 21.0632 12.4408 21.3306 12.0371C21.598 11.6334 21.9781 11.3187 22.4228 11.1329C22.8676 10.9471 23.3568 10.8985 23.829 10.9932C24.301 11.0879 24.7347 11.3217 25.075 11.6651C25.4154 12.0084 25.6472 12.4458 25.7411 12.9221C25.835 13.3983 25.7868 13.8919 25.6026 14.3405C25.4184 14.7891 25.1065 15.1725 24.7063 15.4423C24.306 15.712 23.8355 15.856 23.3541 15.856C22.7104 15.8534 22.0938 15.5936 21.6395 15.1335C21.1853 14.6734 20.9301 14.0504 20.9301 13.401H20.9204Z" fill="#519D9E"/>
<path d="M35.6685 21.198C34.6096 21.198 33.5744 21.5147 32.6939 22.1083C31.8134 22.7017 31.1272 23.5452 30.7219 24.5321C30.3167 25.519 30.2106 26.605 30.4172 27.6527C30.6238 28.7004 31.1338 29.6628 31.8826 30.4181C32.6313 31.1734 33.5854 31.6878 34.6239 31.8962C35.6625 32.1046 36.7391 31.9977 37.7174 31.5889C38.6958 31.1801 39.532 30.4878 40.1203 29.5996C40.7087 28.7114 41.0226 27.6673 41.0226 26.599C41.0226 25.1666 40.4586 23.7928 39.4544 22.7799C38.4504 21.767 37.0885 21.198 35.6685 21.198ZM35.6685 29.054C35.1868 29.054 34.7158 28.9098 34.3154 28.6395C33.915 28.3694 33.603 27.9854 33.4191 27.5363C33.2352 27.0871 33.1876 26.5929 33.2823 26.1165C33.377 25.6399 33.6097 25.2025 33.951 24.8596C34.2924 24.5166 34.727 24.2836 35.1997 24.19C35.6725 24.0964 36.1621 24.1464 36.6066 24.3338C37.0511 24.521 37.4306 24.8372 37.6968 25.2422C37.9631 25.6473 38.1041 26.1229 38.1022 26.6089C38.0971 27.2565 37.8384 27.8759 37.3826 28.3321C36.9267 28.7882 36.3106 29.0442 35.6685 29.0442V29.054Z" fill="#519D9E"/>
<path d="M38.2775 11.2111C38.1427 11.0733 37.9819 10.964 37.8048 10.8893C37.6277 10.8147 37.4376 10.7763 37.2456 10.7763C37.0536 10.7763 36.8636 10.8147 36.6864 10.8893C36.5094 10.964 36.3486 11.0733 36.2137 11.2111L20.8035 26.7071C20.6669 26.8432 20.5586 27.0053 20.4845 27.1839C20.4105 27.3626 20.3724 27.5543 20.3724 27.748C20.3724 27.9416 20.4105 28.1334 20.4845 28.312C20.5586 28.4908 20.6669 28.6529 20.8035 28.7889C21.0777 29.0643 21.4485 29.2196 21.8354 29.221C22.2159 29.2349 22.5865 29.0973 22.8673 28.838L38.2775 13.293C38.4141 13.1569 38.5225 12.9948 38.5965 12.8161C38.6706 12.6375 38.7087 12.4457 38.7087 12.252C38.7087 12.0584 38.6706 11.8667 38.5965 11.688C38.5225 11.5094 38.4141 11.3472 38.2775 11.2111Z" fill="#519D9E"/>
</g>
<defs>
<filter id="filter0_d_2452_26993" x="0" y="0" width="59.0234" height="60" filterUnits="userSpaceOnUse" color-interpolation-filters="sRGB">
<feFlood flood-opacity="0" result="BackgroundImageFix"/>
<feColorMatrix in="SourceAlpha" type="matrix" values="0 0 0 0 0 0 0 0 0 0 0 0 0 0 0 0 0 0 127 0" result="hardAlpha"/>
<feMorphology radius="2" operator="dilate" in="SourceAlpha" result="effect1_dropShadow_2452_26993"/>
<feOffset dy="10"/>
<feGaussianBlur stdDeviation="8"/>
<feComposite in2="hardAlpha" operator="out"/>
<feColorMatrix type="matrix" values="0 0 0 0 0.180392 0 0 0 0 0.227451 0 0 0 0 0.282353 0 0 0 0.16 0"/>
<feBlend mode="normal" in2="BackgroundImageFix" result="effect1_dropShadow_2452_26993"/>
<feBlend mode="normal" in="SourceGraphic" in2="effect1_dropShadow_2452_26993" result="shape"/>
</filter>
</defs>
</svg>
