<svg width="32" height="31" viewBox="0 0 32 31" fill="none" xmlns="http://www.w3.org/2000/svg">
<path d="M7.91172 16.5798C7.45448 15.3473 7.56406 13.9628 8.21294 12.8238C9.00678 11.4625 10.4558 10.6161 12.0164 10.6161C12.5419 10.6161 13.0533 10.7074 13.5334 10.8889L11.4796 14.498L7.91172 16.5798ZM12.2075 15.7781H16.3327C16.1235 17.0683 15.3341 18.2164 14.2025 18.8732L14.1999 18.8747C12.3409 19.9684 9.98528 19.4913 8.64019 17.8527L12.2075 15.7781ZM14.9495 20.1533C16.7539 19.0985 17.8574 17.1573 17.8778 15.075H17.8779V15.0701V15.07V15.0699V15.0698V15.0697V15.0696V15.0694V15.0693V15.0692V15.0691V15.069V15.0689V15.0688V15.0687V15.0686V15.0685V15.0684V15.0683V15.0682V15.0681V15.068V15.0679V15.0678V15.0677V15.0676V15.0675V15.0674V15.0673V15.0672V15.0671V15.067V15.0669V15.0668V15.0667V15.0666V15.0665V15.0664V15.0663V15.0662V15.0661V15.066V15.0659V15.0658V15.0657V15.0656V15.0655V15.0654V15.0653V15.0653V15.0652V15.0651V15.065V15.0649V15.0648V15.0647V15.0646V15.0645V15.0644V15.0644V15.0643V15.0642V15.0641V15.064V15.0639V15.0638V15.0637V15.0637V15.0636V15.0635V15.0634V15.0633V15.0632V15.0631V15.0631V15.063V15.0629V15.0628V15.0627V15.0626V15.0626V15.0625V15.0624V15.0623V15.0622V15.0622V15.0621V15.062V15.0619V15.0618V15.0618V15.0617V15.0616V15.0615V15.0614V15.0614V15.0613V15.0612V15.0611V15.0611V15.061V15.0609V15.0608V15.0608V15.0607V15.0606V15.0605V15.0605V15.0604V15.0603V15.0602V15.0602V15.0601V15.06V15.0599V15.0599V15.0598V15.0597V15.0597V15.0596V15.0595V15.0594V15.0594V15.0593V15.0592V15.0592V15.0591V15.059V15.0589V15.0589V15.0588V15.0587V15.0587V15.0586V15.0585V15.0585V15.0584V15.0583V15.0583V15.0582V15.0581V15.0581V15.058V15.0579V15.0579V15.0578V15.0577V15.0577V15.0576V15.0575V15.0575V15.0574V15.0573V15.0573V15.0572V15.0571V15.0571V15.057V15.057V15.0569V15.0568V15.0568V15.0567V15.0566V15.0566V15.0565V15.0565V15.0564V15.0563V15.0563V15.0562V15.0561V15.0561V15.056V15.056V15.0559V15.0558V15.0558V15.0557V15.0557V15.0556V15.0555V15.0555V15.0554V15.0554V15.0553V15.0552V15.0552V15.0551V15.0551V15.055V15.0549V15.0549V15.0548V15.0548V15.0547V15.0546V15.0546V15.0545V15.0545V15.0544V15.0543V15.0543V15.0542V15.0542V15.0541V15.0541V15.054V15.0539V15.0539V15.0538V15.0538V15.0537V15.0537V15.0536V15.0535V15.0535V15.0534V15.0534V15.0533V15.0533V15.0532V15.0531V15.0531V15.053V15.053V15.0529V15.0529V15.0528V15.0528V15.0527V15.0526V15.0526V15.0525V15.0525V15.0524V15.0524V15.0523V15.0523V15.0522V15.0521V15.0521V15.052V15.052V15.0519V15.0519V15.0518V15.0518V15.0517V15.0516V15.0516V15.0515V15.0515V15.0514V15.0514V15.0513V15.0513V15.0512V15.0511V15.0511V15.051V15.051V15.0509V15.0509V15.0508V15.0508V15.0507V15.0506V15.0506V15.0505V15.0505V15.0504V15.0504V15.0503V15.0503V15.0502V15.0501V15.0501V15.05V15.05V15.0499V15.0499V15.0498V15.0498V15.0497V15.0496V15.0496V15.0495V15.0495V15.0494V15.0494V15.0493V15.0492V15.0492V15.0491V15.0491V15.049V15.049V15.0489V15.0488V15.0488V15.0487V15.0487V15.0486V15.0486V15.0485V15.0484V15.0484V15.0483V15.0483V15.0482V15.0482V15.0481V15.048V15.048V15.0479V15.0479V15.0478V15.0478V15.0477V15.0476V15.0476V15.0475V15.0475V15.0474V15.0473V15.0473V15.0472V15.0472V15.0471V15.047V15.047V15.0469V15.0469V15.0468V15.0467V15.0467V15.0466V15.0466V15.0465V15.0464V15.0464V15.0463V15.0463V15.0462V15.0461V15.0461V15.046V15.0459V15.0459V15.0458V15.0458V15.0457V15.0456V15.0456V15.0455V15.0454V15.0454V15.0453V15.0452V15.0452V15.0451V15.0451V15.045V15.0449V15.0449V15.0448V15.0447V15.0447V15.0446V15.0445V15.0445V15.0444V15.0443V15.0443V15.0442V15.0441V15.0441V15.044V15.0439V15.0439V15.0438V15.0437V15.0437V15.0436V15.0435V15.0434V15.0434V15.0433V15.0432V15.0432V15.0431V15.043V15.043V15.0429V15.0428V15.0427V15.0427V15.0426V15.0425V15.0425V15.0424V15.0423V15.0422V15.0422V15.0421V15.042V15.0419V15.0419V15.0418V15.0417V15.0416V15.0416V15.0415V15.0414V15.0413V15.0413V15.0412V15.0411V15.041V15.0409V15.0409V15.0408V15.0407V15.0406V15.0406V15.0405V15.0404V15.0403V15.0402V15.0402V15.0401V15.04V15.0399V15.0398V15.0397V15.0397V15.0396V15.0395V15.0394V15.0393V15.0392V15.0392V15.0391V15.039V15.0389V15.0388V15.0387V15.0387V15.0386V15.0385V15.0384V15.0383V15.0382V15.0381V15.038V15.038V15.0379V15.0378V15.0377V15.0376V15.0375V15.0374V15.0373V15.0372V15.0371V15.037V15.037V15.0369V15.0368V15.0367V15.0366V15.0365V15.0364V15.0363V15.0362V15.0361V15.036V15.0359V15.0358V15.0357V15.0356V15.0355V15.0354V15.0353V15.0352V15.0351V15.035V15.0349V15.0348V15.0347V15.0346V15.0345V15.0344V15.0343V15.0342V15.0341V15.034V15.0339V15.0338V15.0337V15.0336V15.0335V15.0334V15.0333V15.0332V15.0331V15.0329V15.0328V15.0327V15.0326V15.0325V15.0324V15.0323C17.8779 12.9276 16.7537 10.9642 14.9457 9.92807L14.9207 9.97176C14.9033 9.98394 14.8834 10.0034 14.8602 10.0329L14.9313 9.91166C14.0473 9.39324 13.0412 9.12445 12.0164 9.12445C9.92325 9.12445 7.97801 10.2619 6.93377 12.0793L6.93257 12.0814C5.88999 13.9165 5.8886 16.1663 6.93378 17.9853L6.96629 18.0419L6.98608 18.0619C8.03973 19.8481 9.96754 20.9401 12.0352 20.9401C13.0597 20.9401 14.0656 20.6715 14.9495 20.1533ZM16.3355 14.3054H13.2893L14.8149 11.6286C15.6241 12.3097 16.1622 13.2592 16.3355 14.3054ZM29.4754 24.8564H2.5246V10.8157C2.5246 9.59522 2.85881 8.45343 3.43673 7.48067V20.3834C3.43673 22.5841 5.21248 24.3815 7.4048 24.3815H24.5952C26.7705 24.3815 28.5445 22.5824 28.5445 20.3834V7.46034C29.1363 8.43708 29.4754 9.58616 29.4754 10.8157V24.8564ZM24.5952 22.9277H7.4048C6.01657 22.9277 4.88664 21.7942 4.88664 20.3834V3.06318C4.88664 1.64834 6.02058 0.5 7.4048 0.5H24.5952C25.9794 0.5 27.1134 1.64834 27.1134 3.06318V20.3834C27.1134 21.7942 25.9834 22.9277 24.5952 22.9277ZM24.2203 8.0256C24.606 8.0256 24.964 7.72837 24.964 7.27979C24.964 6.82426 24.5781 6.55288 24.2203 6.55288H16.5343C16.1228 6.55288 15.8093 6.87536 15.8093 7.27979C15.8093 7.45922 15.8664 7.65037 16.0076 7.80116C16.1508 7.95412 16.3439 8.0256 16.5343 8.0256H24.2203ZM24.2203 6.00239C24.6317 6.00239 24.964 5.661 24.964 5.25657C24.964 4.80105 24.5781 4.52967 24.2203 4.52967H13.1412C12.7833 4.52967 12.3975 4.80104 12.3975 5.25657C12.3975 5.661 12.7298 6.00239 13.1412 6.00239H24.2203ZM24.2203 3.97917C24.6317 3.97917 24.964 3.63779 24.964 3.23336C24.964 2.82893 24.6317 2.48755 24.2203 2.48755H8.22964C7.81822 2.48755 7.48594 2.82893 7.48594 3.23336C7.48594 3.63779 7.81823 3.97917 8.22964 3.97917H24.2203ZM20.9209 20.9401C21.3323 20.9401 21.6646 20.5988 21.6646 20.1943V15.505C21.6646 15.1006 21.3323 14.7592 20.9209 14.7592C20.5095 14.7592 20.1772 15.1006 20.1772 15.505V20.1943C20.1772 20.5988 20.5095 20.9401 20.9209 20.9401ZM23.0018 20.9401C23.4132 20.9401 23.7455 20.5988 23.7455 20.1943V13.4251C23.7455 13.0206 23.4132 12.6793 23.0018 12.6793C22.5397 12.6793 22.2768 13.0746 22.2768 13.4251V20.1943C22.2768 20.5448 22.5398 20.9401 23.0018 20.9401ZM25.1013 20.9401C25.5633 20.9401 25.8263 20.5448 25.8263 20.1943V10.4186C25.8263 10.0681 25.5633 9.67279 25.1013 9.67279C24.6899 9.67279 24.3576 10.0142 24.3576 10.4186V20.1943C24.3576 20.5987 24.6899 20.9401 25.1013 20.9401ZM27.8383 30.3966H4.16169C2.15337 30.3966 0.5 28.7511 0.5 26.6989C0.5 26.4862 0.666991 26.3102 0.899824 26.3102H31.1002C31.3211 26.3102 31.5 26.4929 31.5 26.6989C31.5 28.7511 29.8466 30.3966 27.8383 30.3966ZM17.9965 29.0897C18.3543 29.0897 18.7402 28.8183 18.7402 28.3628C18.7402 27.9584 18.4079 27.617 17.9965 27.617H14.0035C13.5921 27.617 13.2598 27.9584 13.2598 28.3628C13.2598 28.8183 13.6457 29.0897 14.0035 29.0897H17.9965Z" stroke="#519D9E"/>
</svg>
