<svg width="53" height="54" viewBox="0 0 53 54" fill="none" xmlns="http://www.w3.org/2000/svg">
<g filter="url(#filter0_d_2251_26931)">
<path d="M25.8748 12.3115C25.8748 11.5755 25.6584 10.8561 25.2529 10.2443C24.8474 9.63243 24.2712 9.15564 23.597 8.87429C22.9228 8.59295 22.181 8.51971 21.4656 8.66376C20.7501 8.80788 20.0931 9.1628 19.5776 9.6837C19.0622 10.2046 18.7116 10.868 18.57 11.59C18.4285 12.312 18.5025 13.0601 18.7826 13.7396C19.0627 14.4192 19.5364 14.9997 20.1437 15.4076C20.751 15.8155 21.4645 16.0325 22.1941 16.0312C22.678 16.0312 23.1573 15.9349 23.6042 15.7479C24.0512 15.5609 24.4573 15.2868 24.7992 14.9413C25.141 14.5958 25.412 14.1857 25.5966 13.7344C25.7812 13.2832 25.8758 12.7996 25.8748 12.3115ZM20.5113 12.3115C20.5113 11.9771 20.6096 11.6502 20.7938 11.3722C20.978 11.0941 21.2397 10.8774 21.546 10.7494C21.8523 10.6215 22.1893 10.588 22.5144 10.6532C22.8395 10.7184 23.1382 10.8795 23.3726 11.116C23.607 11.3524 23.7666 11.6536 23.8313 11.9816C23.896 12.3097 23.8628 12.6496 23.7359 12.9585C23.6091 13.2674 23.3943 13.5315 23.1186 13.7173C22.843 13.9031 22.5189 14.0022 22.1874 14.0022C21.744 14.0005 21.3194 13.8215 21.0065 13.5047C20.6937 13.1878 20.518 12.7587 20.518 12.3115H20.5113Z" fill="#EB4B5A"/>
<path d="M30.6683 17.6813C29.9391 17.6813 29.2261 17.8994 28.6197 18.3082C28.0133 18.7169 27.5407 19.2978 27.2616 19.9775C26.9825 20.6572 26.9095 21.4051 27.0518 22.1267C27.194 22.8482 27.5453 23.511 28.061 24.0312C28.5766 24.5514 29.2337 24.9057 29.9489 25.0492C30.6642 25.1927 31.4057 25.1191 32.0795 24.8375C32.7533 24.556 33.3292 24.0792 33.7343 23.4675C34.1395 22.8558 34.3557 22.1367 34.3557 21.401C34.3557 20.4145 33.9673 19.4683 33.2757 18.7708C32.5842 18.0732 31.6463 17.6813 30.6683 17.6813ZM30.6683 23.0918C30.3366 23.0918 30.0122 22.9924 29.7365 22.8063C29.4607 22.6203 29.2459 22.3558 29.1192 22.0465C28.9926 21.7371 28.9598 21.3968 29.0249 21.0687C29.0902 20.7405 29.2505 20.4392 29.4855 20.2031C29.7207 19.9668 30.0199 19.8063 30.3455 19.7419C30.6711 19.6774 31.0083 19.7119 31.3144 19.8409C31.6206 19.9699 31.8819 20.1876 32.0653 20.4666C32.2486 20.7455 32.3458 21.0731 32.3444 21.4078C32.3409 21.8538 32.1628 22.2804 31.8488 22.5946C31.5349 22.9087 31.1105 23.085 30.6683 23.085V23.0918Z" fill="#EB4B5A"/>
<path d="M32.4652 10.8033C32.3723 10.7084 32.2616 10.6331 32.1396 10.5817C32.0177 10.5303 31.8867 10.5038 31.7545 10.5038C31.6223 10.5038 31.4914 10.5303 31.3694 10.5817C31.2475 10.6331 31.1368 10.7084 31.0438 10.8033L20.4308 21.4754C20.3367 21.5691 20.2621 21.6808 20.2111 21.8038C20.1601 21.9269 20.1339 22.0589 20.1339 22.1923C20.1339 22.3257 20.1601 22.4577 20.2111 22.5808C20.2621 22.7038 20.3367 22.8155 20.4308 22.9092C20.6196 23.0989 20.875 23.2058 21.1414 23.2067C21.4035 23.2163 21.6588 23.1216 21.8521 22.943L32.4652 12.2371C32.5592 12.1434 32.6339 12.0317 32.6849 11.9087C32.7359 11.7856 32.7621 11.6536 32.7621 11.5202C32.7621 11.3868 32.7359 11.2548 32.6849 11.1317C32.6339 11.0087 32.5592 10.897 32.4652 10.8033Z" fill="#EB4B5A"/>
</g>
<defs>
<filter id="filter0_d_2251_26931" x="0.5" y="0.591797" width="51.8555" height="52.5293" filterUnits="userSpaceOnUse" color-interpolation-filters="sRGB">
<feFlood flood-opacity="0" result="BackgroundImageFix"/>
<feColorMatrix in="SourceAlpha" type="matrix" values="0 0 0 0 0 0 0 0 0 0 0 0 0 0 0 0 0 0 127 0" result="hardAlpha"/>
<feMorphology radius="2" operator="dilate" in="SourceAlpha" result="effect1_dropShadow_2251_26931"/>
<feOffset dy="10"/>
<feGaussianBlur stdDeviation="8"/>
<feComposite in2="hardAlpha" operator="out"/>
<feColorMatrix type="matrix" values="0 0 0 0 0.180392 0 0 0 0 0.227451 0 0 0 0 0.282353 0 0 0 0.16 0"/>
<feBlend mode="normal" in2="BackgroundImageFix" result="effect1_dropShadow_2251_26931"/>
<feBlend mode="normal" in="SourceGraphic" in2="effect1_dropShadow_2251_26931" result="shape"/>
</filter>
</defs>
</svg>
