<svg width="32" height="40" viewBox="0 0 32 40" fill="none" xmlns="http://www.w3.org/2000/svg">
<path d="M5.04155 10.0769C5.04155 9.40991 4.50082 8.86918 3.8338 8.86918C3.16677 8.86918 2.62604 9.40991 2.62604 10.0769C2.62604 10.744 3.16677 11.2847 3.8338 11.2847C4.50082 11.2847 5.04155 10.744 5.04155 10.0769Z" fill="#519D9E"/>
<path d="M19.4127 0.835938H2.94737C1.31856 0.835938 0 2.1545 0 3.78331V27.6171C0 29.2459 1.31856 30.5645 2.94737 30.5645H12.1108C12.1108 24.7362 16.6316 19.9828 22.349 19.5839V3.78331C22.349 2.1545 21.0305 0.835938 19.4017 0.835938H19.4127ZM3.8338 15.4177C3.16898 15.4177 2.62604 14.8747 2.62604 14.2099C2.62604 13.5451 3.16898 13.0021 3.8338 13.0021C4.49862 13.0021 5.04155 13.5451 5.04155 14.2099C5.04155 14.8747 4.49862 15.4177 3.8338 15.4177ZM7.33518 15.4177C6.67036 15.4177 6.12742 14.8747 6.12742 14.2099C6.12742 13.5451 6.67036 13.0021 7.33518 13.0021H18.5374C19.2022 13.0021 19.7452 13.5451 19.7452 14.2099C19.7452 14.8747 19.2022 15.4177 18.5374 15.4177H7.33518ZM7.33518 11.2847C6.67036 11.2847 6.12742 10.7418 6.12742 10.0769C6.12742 9.41212 6.67036 8.86918 7.33518 8.86918H18.5374C19.2022 8.86918 19.7452 9.41212 19.7452 10.0769C19.7452 10.7418 19.2022 11.2847 18.5374 11.2847H7.33518ZM18.5263 6.80824H3.8338C3.16898 6.80824 2.62604 6.2653 2.62604 5.60048C2.62604 4.93566 3.16898 4.39272 3.8338 4.39272H18.5263C19.1911 4.39272 19.7341 4.93566 19.7341 5.60048C19.7341 6.2653 19.1911 6.80824 18.5263 6.80824Z" fill="#519D9E"/>
<path d="M22.9252 21.0132C17.9058 21.0132 13.8504 25.0797 13.8504 30.088C13.8504 35.0963 17.9169 39.1628 22.9252 39.1628C27.9335 39.1628 32 35.0963 32 30.088C32 25.0797 27.9335 21.0132 22.9252 21.0132ZM28.1551 30.2653C28.1551 30.7418 27.7673 31.1185 27.3019 31.1185H23.9557V34.4647C23.9557 34.9412 23.5679 35.3179 23.1025 35.3179H22.7701C22.2936 35.3179 21.9169 34.9301 21.9169 34.4647V31.1185H18.5706C18.0942 31.1185 17.7175 30.7307 17.7175 30.2653V29.9329C17.7175 29.4564 18.1053 29.0797 18.5706 29.0797H21.9169V25.7334C21.9169 25.257 22.3047 24.8803 22.7701 24.8803H23.1025C23.5789 24.8803 23.9557 25.2681 23.9557 25.7334V29.0797H27.3019C27.7784 29.0797 28.1551 29.4675 28.1551 29.9329V30.2653Z" fill="#519D9E"/>
</svg>
