<svg width="28" height="28" viewBox="0 0 28 28" fill="none" xmlns="http://www.w3.org/2000/svg">
<path d="M17 0H3C1.3 0 0 1.3 0 3V20C0 20.4 0.2 20.7 0.5 20.9C0.7 21 0.8 21 1 21C1.2 21 1.4 20.9 1.5 20.8L9 16H17C18.7 16 20 14.7 20 13V3C20 1.3 18.7 0 17 0ZM8 11H6C5.4 11 5 10.6 5 10C5 9.4 5.4 9 6 9H8C8.6 9 9 9.4 9 10C9 10.6 8.6 11 8 11ZM11 7H6C5.4 7 5 6.6 5 6C5 5.4 5.4 5 6 5H11C11.6 5 12 5.4 12 6C12 6.6 11.6 7 11 7Z" fill="#519D9E"/>
<path d="M25 7H22V13C22 15.8 19.8 18 17 18H9.6L8 19V20C8 21.7 9.3 23 11 23H19L26.5 27.8C26.7 27.9 26.9 28 27 28C27.2 28 27.3 28 27.5 27.9C27.8 27.7 28 27.4 28 27V10C28 8.3 26.7 7 25 7Z" fill="#519D9E"/>
</svg>
