<svg width="19" height="26" viewBox="0 0 19 26" fill="none" xmlns="http://www.w3.org/2000/svg">
<path d="M9.40076 0C4.01733 0 0.400391 3.08559 0.400391 7.67801C0.400391 13.7645 8.13909 24.7383 8.21615 24.8241C8.36515 24.9905 8.54755 25.1236 8.75146 25.2148C8.95536 25.306 9.1762 25.3532 9.39956 25.3533C9.62293 25.3534 9.84381 25.3064 10.0478 25.2155C10.2518 25.1245 10.4343 24.9915 10.5835 24.8253C10.6617 24.7383 18.4004 13.7645 18.4004 7.67801C18.4004 3.08559 14.7836 0 9.40076 0ZM9.40039 14.9218C8.23035 14.9218 7.08659 14.5748 6.11374 13.9248C5.14089 13.2747 4.38264 12.3508 3.93489 11.2698C3.48713 10.1889 3.36998 8.99938 3.59825 7.85182C3.82651 6.70427 4.38994 5.65017 5.21728 4.82282C6.04462 3.99548 7.09872 3.43205 8.24628 3.20379C9.39384 2.97553 10.5833 3.09268 11.6643 3.54043C12.7453 3.98818 13.6692 4.74643 14.3192 5.71928C14.9693 6.69213 15.3162 7.83589 15.3162 9.00593C15.3162 9.78281 15.1632 10.5521 14.8659 11.2698C14.5686 11.9876 14.1329 12.6397 13.5835 13.1891C13.0342 13.7384 12.382 14.1742 11.6643 14.4715C10.9465 14.7688 10.1773 14.9218 9.40039 14.9218Z" fill="#519D9E"/>
</svg>
