<svg width="18" height="24" viewBox="0 0 18 24" fill="none" xmlns="http://www.w3.org/2000/svg">
<path d="M16.7072 1.68579L7.22034 0.0116321C7.09999 -0.00857468 6.97669 -0.00240019 6.85896 0.0297296C6.74123 0.0618593 6.63188 0.119177 6.53848 0.197719C6.44508 0.276261 6.36985 0.374153 6.318 0.484626C6.26615 0.595098 6.23891 0.715515 6.23817 0.837548V1.77507L0.858557 3.06975C0.676053 3.11455 0.513761 3.21907 0.39748 3.3667C0.281198 3.51433 0.217601 3.69659 0.216797 3.88451V6.17252C0.216797 6.39453 0.304989 6.60744 0.461971 6.76442C0.618954 6.9214 0.831867 7.0096 1.05387 7.0096C1.27588 7.0096 1.48879 6.9214 1.64578 6.76442C1.80276 6.60744 1.89095 6.39453 1.89095 6.17252V4.53185L6.23817 3.49387V20.5814L1.89095 19.5434V18.1371C1.89095 17.9151 1.80276 17.7022 1.64578 17.5452C1.48879 17.3883 1.27588 17.3001 1.05387 17.3001C0.831867 17.3001 0.618954 17.3883 0.461971 17.5452C0.304989 17.7022 0.216797 17.9151 0.216797 18.1371V20.2019C0.217601 20.3899 0.281198 20.5721 0.39748 20.7197C0.513761 20.8674 0.676053 20.9719 0.858557 21.0167L6.23817 22.3002V23.1596C6.23985 23.2813 6.2677 23.4013 6.31985 23.5113C6.37201 23.6213 6.44722 23.7188 6.5404 23.7971C6.63358 23.8755 6.74253 23.9329 6.85986 23.9654C6.97718 23.9979 7.10013 24.0048 7.22034 23.9855L16.7072 22.3114C16.9013 22.2772 17.0772 22.1756 17.2038 22.0245C17.3303 21.8735 17.3996 21.6826 17.3992 21.4854V2.5117C17.3996 2.3146 17.3303 2.12369 17.2038 1.9726C17.0772 1.82152 16.9013 1.71995 16.7072 1.68579Z" fill="#519D9E"/>
</svg>
