<svg width="19" height="25" viewBox="0 0 19 25" fill="none" xmlns="http://www.w3.org/2000/svg">
<path fill-rule="evenodd" clip-rule="evenodd" d="M18.4004 3.24232C18.4004 2.38413 18.0659 1.56194 17.4714 0.955742C16.871 0.342581 16.0557 0 15.2068 0H3.59394C2.74504 0 1.92981 0.342581 1.32942 0.955742C0.734842 1.56194 0.400391 2.38413 0.400391 3.24232C0.400391 7.71677 0.400391 18.2822 0.400391 22.9111C0.400391 23.7147 0.862584 24.4417 1.57678 24.7761C2.30258 25.1175 3.15613 24.9968 3.76233 24.4672L9.21807 19.692C9.32258 19.6003 9.4782 19.6003 9.58271 19.692L15.0385 24.4672C15.6446 24.9968 16.4982 25.1175 17.224 24.7761C17.9382 24.4417 18.4004 23.7147 18.4004 22.9111V3.24232Z" fill="#519D9E"/>
</svg>
