<svg width="24" height="24" viewBox="0 0 24 24" fill="none" xmlns="http://www.w3.org/2000/svg">
<path d="M23.3078 1.68579L13.8209 0.0116321C13.7006 -0.00857468 13.5773 -0.00240019 13.4595 0.0297296C13.3418 0.0618593 13.2325 0.119177 13.1391 0.197719C13.0457 0.276261 12.9704 0.374153 12.9186 0.484626C12.8667 0.595098 12.8395 0.715515 12.8388 0.837548V1.77507L7.45914 3.06975C7.27664 3.11455 7.11435 3.21907 6.99807 3.3667C6.88178 3.51433 6.81819 3.69659 6.81738 3.88451V6.17252C6.81738 6.39452 6.90558 6.60744 7.06256 6.76442C7.21954 6.9214 7.43245 7.00959 7.65446 7.00959C7.87647 7.00959 8.08938 6.9214 8.24636 6.76442C8.40335 6.60744 8.49154 6.39452 8.49154 6.17252V4.53185L12.8388 3.49387V20.5814L8.49154 19.5434V18.1371C8.49154 17.9151 8.40335 17.7022 8.24636 17.5452C8.08938 17.3883 7.87647 17.3001 7.65446 17.3001C7.43245 17.3001 7.21954 17.3883 7.06256 17.5452C6.90558 17.7022 6.81738 17.9151 6.81738 18.1371V20.2019C6.81819 20.3898 6.88178 20.5721 6.99807 20.7197C7.11435 20.8674 7.27664 20.9719 7.45914 21.0167L12.8388 22.3002V23.1596C12.8404 23.2813 12.8683 23.4013 12.9204 23.5113C12.9726 23.6213 13.0478 23.7188 13.141 23.7971C13.2342 23.8755 13.3431 23.9329 13.4604 23.9654C13.5778 23.9979 13.7007 24.0047 13.8209 23.9855L23.3078 22.3114C23.5019 22.2772 23.6778 22.1756 23.8043 22.0245C23.9309 21.8735 24.0001 21.6825 23.9998 21.4854V2.5117C24.0001 2.3146 23.9309 2.12369 23.8043 1.9726C23.6778 1.82152 23.5019 1.71995 23.3078 1.68579Z" fill="#519D9E"/>
<path d="M10.3612 11.9986C10.3612 11.7766 10.273 11.5637 10.116 11.4067C9.95901 11.2497 9.74609 11.1615 9.52409 11.1615H5.01503V8.65027C5.00851 8.48766 4.95473 8.33048 4.86028 8.19796C4.76582 8.06544 4.63478 7.96333 4.4832 7.90412C4.33162 7.8449 4.16606 7.83116 4.00679 7.86457C3.84752 7.89798 3.70144 7.97709 3.58642 8.09222L0.238113 11.4405C0.0853282 11.5996 0 11.8115 0 12.0321C0 12.2526 0.0853282 12.4646 0.238113 12.6236L3.58642 15.9719C3.70547 16.0911 3.8577 16.1715 4.02321 16.2028C4.18872 16.2341 4.35982 16.2147 4.51414 16.1472C4.66846 16.0797 4.79882 15.9672 4.88818 15.8244C4.97755 15.6816 5.02176 15.5152 5.01503 15.3469V12.8357H9.52409C9.74609 12.8357 9.95901 12.7475 10.116 12.5905C10.273 12.4335 10.3612 12.2206 10.3612 11.9986Z" fill="#519D9E"/>
</svg>
