<svg width="18" height="25" viewBox="0 0 18 25" fill="none" xmlns="http://www.w3.org/2000/svg">
<path fill-rule="evenodd" clip-rule="evenodd" d="M18 3.24232C18 2.38413 17.6655 1.56194 17.071 0.955742C16.4706 0.342581 15.6554 0 14.8065 0H3.19355C2.34465 0 1.52942 0.342581 0.929032 0.955742C0.334452 1.56194 0 2.38413 0 3.24232C0 7.71677 0 18.2822 0 22.9111C0 23.7147 0.462194 24.4417 1.17639 24.7761C1.90219 25.1175 2.75574 24.9968 3.36194 24.4672L8.81768 19.692C8.92219 19.6003 9.07781 19.6003 9.18232 19.692L14.6381 24.4672C15.2443 24.9968 16.0978 25.1175 16.8236 24.7761C17.5378 24.4417 18 23.7147 18 22.9111V3.24232Z" fill="#519D9E"/>
</svg>
