<svg width="24" height="21" viewBox="0 0 24 21" fill="none" xmlns="http://www.w3.org/2000/svg">
<path fill-rule="evenodd" clip-rule="evenodd" d="M13.75 4.5C12.8639 4.5 12.1456 5.17158 12.1456 6H15.3545C15.3545 5.17158 14.6361 4.5 13.75 4.5ZM11.0759 6H10.4226C9.60903 6 8.92422 6.56932 8.82916 7.32474L8.0112 13.8248C7.89899 14.7165 8.64425 15.5 9.60467 15.5H17.8954C18.8558 15.5 19.601 14.7165 19.4888 13.8248L18.6708 7.32474C18.5758 6.56932 17.891 6 17.0774 6H16.4241C16.4241 4.61929 15.2269 3.5 13.75 3.5C12.2731 3.5 11.0759 4.61929 11.0759 6Z" fill="#519D9E"/>
<path fill-rule="evenodd" clip-rule="evenodd" d="M13.6603 0.00407104C7.64113 -0.159231 2.70987 4.61151 2.70987 10.502H0.593092C0.0609423 10.502 -0.19922 11.1319 0.179198 11.4935L3.47853 14.7595C3.71504 14.9928 4.08163 14.9928 4.31814 14.7595L7.61747 11.4935C7.98407 11.1319 7.7239 10.502 7.19175 10.502H5.07498C5.07498 5.95292 8.83551 2.27863 13.4711 2.33695C17.8702 2.39527 21.5716 6.04623 21.6308 10.3854C21.6899 14.9462 17.9648 18.6671 13.3529 18.6671C11.449 18.6671 9.68695 18.0256 8.29153 16.9408C7.81851 16.5792 7.15628 16.6142 6.73056 17.0341C6.23388 17.524 6.26936 18.3522 6.82516 18.7721C8.62265 20.1718 10.8813 21 13.3529 21C19.3248 21 24.1614 16.1359 23.9959 10.1988C23.8421 4.72816 19.2065 0.155708 13.6603 0.00407104Z" fill="#519D9E"/>
</svg>
